<svg xmlns="http://www.w3.org/2000/svg" viewBox="0 0 359.64 610.2"><defs><style>.cls-1{fill:#3b234e;}.cls-2,.cls-4{fill:#67c4ba;}.cls-3{fill:#b5875c;}.cls-3,.cls-4,.cls-5,.cls-6,.cls-7,.cls-8{fill-rule:evenodd;}.cls-5{fill:#ffb1d8;}.cls-6{fill:#f4f5f5;}.cls-7{fill:#e03088;}.cls-8,.cls-9{fill:#a7886c;}.cls-10,.cls-11{fill:none;stroke:#000;stroke-miterlimit:10;}.cls-10{stroke-width:0.75px;}</style></defs><g id="Layer_2" data-name="Layer 2"><g id="Layer_1-2" data-name="Layer 1"><polygon class="cls-1" points="159.63 609.74 108.18 609.2 114.13 587.35 154.13 588.72 159.63 609.74"/><g id="Accessories_Shoe_Flat_Pointy" data-name="Accessories Shoe Flat Pointy"><path id="Shoe-5" class="cls-1" d="M194,610.2l1.21-33.92h25.36c18,17,47.1,27.46,47.1,27.46v6.46H221.73L206,607v3.23Z"/></g><path class="cls-2" d="M232.62,585.74l-37.46-.37c-2.85-18.49-5.34-37.7-7.35-57.58a1124.66,1124.66,0,0,1-5.19-149,1400.21,1400.21,0,0,1-18.89,151.91q-5.49,30.5-12,59.1l-36.83-1.45c8.8-48-18.94-231-.91-298.67l69.24-28.17c.35-1.27.7-2.51,1.07-3.72l71,35.12c-1.3,49.82-4,102.07-8.39,156.51C243.14,496.74,238.26,542.24,232.62,585.74Z"/><g id="Group_675" data-name="Group 675"><g id="Group_676" data-name="Group 676"><path id="Path_946" data-name="Path 946" class="cls-3" d="M185.58,108.45H168.1v-18l14.83.36Q184.27,99.62,185.58,108.45Z"/><g id="Hijab"><path id="path-1" class="cls-4" d="M137.74,20C136.58,13.68,155.69-.89,177.21,0a48.67,48.67,0,0,1,28.91,11.57c3.2,2.73,12.5,10.88,15.33,24.28,1.5,7.11-.31,15-3.92,30.68-1.5,6.53-2.62,9.62-4.9,12.75-1.44,2-5.35,6.67-15.45,10.29-20.11,7.21-41.34,1.67-41.62-2-.05-.61.57-1.7,1.72-3.91,2.69-5.18,4.78-5.48,4.13-7-3.16-7.37-13.31-29.92-15.61-37.29-.9-2.88-1.37-4.51-1.69-5.7-.42-1.57-.67-2.6-.77-3C142,25.48,138.19,22.41,137.74,20Z"/></g><path id="Coat-Back" class="cls-5" d="M217.4,110.12c30.55,57,74.72,100.62,138.75,146l-24.24,27.35c-71.5-26.57-109.23-42.6-127.77-96.42-4.65-13.5-7.9-56.56-10.69-79.21Z"/><path id="Shirt" class="cls-6" d="M118.65,298.71h135.4L200.83,102.14a72.52,72.52,0,0,1-49.52,0c-6.38,26.3-12.33,54.24-17.55,83.72C126.71,225.71,121.87,263.47,118.65,298.71Z"/><path id="Coat-Back-2" class="cls-5" d="M137.27,115.76C108.15,173.46,65.08,218.2,2.2,265.17L27.12,291.9c70.81-28.35,108.14-45.32,125.32-99.57,4.31-13.62,6.49-56.74,8.71-79.46Z"/><path id="Coat-Front" class="cls-7" d="M157.74,102.64c7.68,2.56,8.67,19.6,8.81,24.4,2.66,89.24,2,121.16.68,185-.12,5.65-.25,14.93-6.62,21.94-15.74,17.31-55,4.74-68.35,0,22.26-119.46,39-207.14,41.36-216.43a18.8,18.8,0,0,1,3.38-7c5.1-6.48,13.6-7.67,15.49-7.89C155.08,102.33,156.38,102.18,157.74,102.64Z"/><path id="Coat-Front-2" class="cls-7" d="M200.15,102.17c-7.69,2.56-8.67,19.6-8.81,24.4-2.66,89.24-2,121.16-.68,185,.12,5.65.25,14.93,6.62,21.94,15.74,17.31,55,4.74,68.34,0-22.25-119.46-39-207.14-41.35-216.43a18.83,18.83,0,0,0-3.38-7c-5.1-6.48-13.6-7.67-15.5-7.89C202.8,101.86,201.51,101.72,200.15,102.17Z"/><g id="Head"><path id="Path_948" data-name="Path 948" class="cls-8" d="M144.52,36.66c1-9.07,4.22-13.64,5.95-15.73,9.05-10.9,27.22-12.71,40.24-6.7C193,15.27,200.77,19,205.4,27,219,50.45,196.91,96.2,176.87,96.55,159.34,96.85,141.6,62.46,144.52,36.66Z"/></g><g id="Hijab-2"><path id="Path_949" data-name="Path 949" class="cls-4" d="M172.05,94.87c.53,1.82.86,3.68.86,3.68,1,5.72.5,6.63-.89,19.36,0,.28-1.29,6.25-1.5,9.86-.14,2.33,1.43,7.07,3.4,12.63,3.2,9.07,7.46,20.32,7,26.76-.71,10.39-3.7,34.16-5.44,34.26q-9.9.54-26.3-35c-2.4-5.51-6.67-25.34-17.63-30.84-2-1-6.24-4.6-6.17-9,.06-2.74,3.26-18.58,5.72-24.4s5.18-11.17,5.18-12.8c0-1.41-9.36-15.26-10.51-25.52-1-8.64,2.66-20.64,6.73-28.77a44.41,44.41,0,0,1,2.6-4.49s.28-.42.56-.82c1.31-1.87,8.45-7.69,18.72-14.87a69.33,69.33,0,0,0-7,27.42c-.44,10.79-1.13,27.79,9.19,36.77C158.93,81.13,170.77,90.53,172.05,94.87Z"/></g></g></g><path id="Path_932" data-name="Path 932" class="cls-9" d="M359.56,260.37c-.48,3.76-.7,4.43-.9,6.54a29.5,29.5,0,0,1-1,5,25.4,25.4,0,0,1-2.65,6.94,39.64,39.64,0,0,1-5.62,4.63c-3.21,2.18-4.81,3.27-6.94,3.3-3.05.06-5.48-1.88-7.68-3.64a14,14,0,0,1-3.56-3.63c-1.25-2-1.69-4.46-.66-12.89.34-2.74.85-6.28,1.65-10.4s17.95-2.26,23.15-.54S359.56,260.37,359.56,260.37Z"/><path id="Path_950" data-name="Path 950" class="cls-9" d="M.08,271.37c.48,3.76.7,4.43.9,6.54a28.58,28.58,0,0,0,1,5,25,25,0,0,0,2.63,6.94,40.21,40.21,0,0,0,5.62,4.63c3.21,2.18,4.82,3.27,7,3.31,3,.05,5.48-1.89,7.68-3.65a13.77,13.77,0,0,0,3.55-3.63c1.26-2,1.69-4.46.66-12.89-.33-2.74-.84-6.28-1.65-10.4S9.46,265,4.27,266.7.08,271.37.08,271.37Z"/><path id="Fill_10" data-name="Fill 10" class="cls-10" d="M39,56.47a14.31,14.31,0,0,1,3.2-.19,20,20,0,0,1,14.67,6.93c3,3.59,3.88,8.06,4.48,12.56.06.45.09.9.12,1.35l0,.26a.59.59,0,0,1,.22.73,30.08,30.08,0,0,1,1.34,3.5c1.11,3.53,2.24,7.13,1.55,10.85a53.35,53.35,0,0,0-.92-6.15c0-.11,0-.23-.07-.34v0a14.45,14.45,0,0,0-.57-1.8v0c0-.08-.07-.15-.1-.23s-.13-.32-.2-.48a1.11,1.11,0,0,1-.07-.16c-.34-.82-.48-1.74-.78-2.58-.07-.19-.14-.38-.22-.57l0,0c-.21-.52-.44-1-.69-1.52a1.83,1.83,0,0,1-.32-.58,3.56,3.56,0,0,1-.27-.51l-.44-.85h0c-.15-.27-.3-.54-.44-.81l-.1-.17-.16-.28c-.49-.88-1-1.73-1.55-2.58C57.5,72.47,57,72,57,71.7v0a19.38,19.38,0,0,0-4.14-4.34c.2.21.61.92.72,1.06.34.43.7.84,1.07,1.25a25.66,25.66,0,0,1,1.86,2.28,41.69,41.69,0,0,1,2.79,4.55l0,0a11.24,11.24,0,0,1,1,1.91c-1.22-.56-2.56-.92-3.81-1.42a30.57,30.57,0,0,1-3.62-1.7,40.57,40.57,0,0,1-4.63-2.93,18.43,18.43,0,0,1-4.34-4,21,21,0,0,1-3.66-5.72,17,17,0,0,1-.93-3.28l0-.16A10.24,10.24,0,0,1,38.75,58c-.24-.64-.79-1.35.24-1.57"/><path id="Fill_1" data-name="Fill 1" class="cls-10" d="M9.7,82.15c-.22.75,0,1.4.86,1.22.27-.06.54-.15.81-.22,1.46-.42,2.92-.87,4.39-1.26a61.45,61.45,0,0,1,8.63-1.45,42.92,42.92,0,0,1,6.89-.32,45.12,45.12,0,0,1,8.34,1.31,62.25,62.25,0,0,1,8.43,2.51,55.16,55.16,0,0,1,8.76,4.39,82.21,82.21,0,0,1,18.63,15.59l2.34,2.63c.58.66,1.14,1.35,1.72,2s1,.24.67-.41a13.8,13.8,0,0,0-1.71-2L77,104.39c-.58-.67-1.16-1.33-1.76-2a99.22,99.22,0,0,0-8.89-8.63,70,70,0,0,0-7.61-5.53A44.85,44.85,0,0,0,49,83.09l-.13-.15c.68-.61-1.4-2.66-1.77-3.06A33.09,33.09,0,0,0,44,77a14.6,14.6,0,0,0-2.85-1.87,18,18,0,0,0-4.85-1.5,35.74,35.74,0,0,0-8.94-.53,27.29,27.29,0,0,0-15.07,5.61A7.63,7.63,0,0,0,9.7,82.15Z"/><path id="Fill_20" data-name="Fill 20" class="cls-10" d="M52.76,87.87a15.29,15.29,0,0,0-6.34,1.19,28.18,28.18,0,0,0-5,2.91,15.72,15.72,0,0,0-5.21,5.81,7.25,7.25,0,0,0-.78,5.06,4,4,0,0,0,4.28,3.08A7.75,7.75,0,0,0,43.18,104a12.94,12.94,0,0,0,2.9-3.43c1.28-2.11,2-4.5,3.11-6.7.51-1,1-2.1,1.62-3.1a5.06,5.06,0,0,1,1.09-1.35c.25-.19,1.29-.53.89-1A12.85,12.85,0,0,1,64.93,98.61c.11.52.19,1,.28,1.57.05.33,0,1.54.32,1.75.65.46.38-1,.35-1.15-.07-.52-.15-1-.23-1.57a13.14,13.14,0,0,0-3.81-7.52A13.3,13.3,0,0,0,52.76,87.87Z"/><path id="Fill_10-2" data-name="Fill 10" class="cls-11" d="M22,160.58a15,15,0,0,0,1.66,3A21.44,21.44,0,0,0,38.36,173c5,.7,9.55-1.1,14-3.14.44-.21.86-.44,1.29-.67l.25-.12c.33.09.63.07.79-.22a31.37,31.37,0,0,0,4-.79c3.86-1,7.78-2.06,10.76-4.83a52.15,52.15,0,0,1-6.12,2.7l-.35.13,0,0a14.9,14.9,0,0,1-2,.52h0l-.27,0-.55.09-.19,0c-.93.16-1.85.56-2.79.77l-.65.13h0c-.59.1-1.18.17-1.78.24a2.11,2.11,0,0,0-.71,0,4.2,4.2,0,0,0-.62.06l-1,.08h0l-1,.07H51.1l-.34,0c-1.08,0-2.16.07-3.23.07a6.13,6.13,0,0,0-1.41-.06l0,0a20.78,20.78,0,0,1-6.33-1.27c.3.06,1.19,0,1.38.05.59,0,1.17.15,1.75.25a27.76,27.76,0,0,0,3.14.39,46,46,0,0,0,5.75-.09h0a12,12,0,0,0,2.32-.19c-1.21-.78-2.31-1.79-3.48-2.64A35.28,35.28,0,0,0,47,162.37a43.94,43.94,0,0,0-5.33-2.52,20,20,0,0,0-6.1-1.67,22.36,22.36,0,0,0-7.3,0,18.72,18.72,0,0,0-3.52,1l-.16.06c-.46,0-.92.12-1.37.21-.72.16-1.67.06-1.28,1.13"/><path id="Fill_10-3" data-name="Fill 10" class="cls-11" d="M269.55,223.43a15.22,15.22,0,0,0,3.44.09,21.39,21.39,0,0,0,15.52-8c3.15-4,3.89-8.79,4.38-13.65.05-.49.06-1,.08-1.45,0-.1,0-.2,0-.28.25-.24.37-.51.21-.79a31.76,31.76,0,0,0,1.32-3.81c1.08-3.84,2.17-7.75,1.29-11.72a55.11,55.11,0,0,1-.77,6.64c0,.12-.05.25-.07.37v0a13.22,13.22,0,0,1-.54,2v0l-.09.25c-.07.17-.13.35-.2.52a1.34,1.34,0,0,0-.07.18c-.33.89-.45,1.88-.75,2.8-.07.2-.14.41-.22.62v0c-.21.55-.45,1.1-.7,1.65a2.08,2.08,0,0,0-.32.63,3.2,3.2,0,0,0-.27.56c-.15.31-.29.62-.44.92h0c-.15.29-.29.59-.44.88l-.1.19-.16.31c-.49,1-1,1.89-1.57,2.82a5.38,5.38,0,0,0-.76,1.18.06.06,0,0,0,0,0,20.71,20.71,0,0,1-4.29,4.81c.2-.23.62-1,.74-1.17.34-.47.72-.92,1.1-1.37a26.16,26.16,0,0,0,1.92-2.52,45.48,45.48,0,0,0,2.84-5l0,0a12.2,12.2,0,0,0,1-2.09c-1.29.64-2.72,1.08-4.05,1.66a35.35,35.35,0,0,0-3.83,1.95,42.23,42.23,0,0,0-4.87,3.32,19.76,19.76,0,0,0-4.53,4.41,22.35,22.35,0,0,0-3.73,6.28,18,18,0,0,0-.88,3.56l0,.17a11.21,11.21,0,0,0-.52,1.29c-.22.69-.79,1.47.33,1.67"/><path id="Fill_10-4" data-name="Fill 10" class="cls-11" d="M296,19.53a15.27,15.27,0,0,0-3.44-.21,21.43,21.43,0,0,0-15.77,7.46c-3.28,3.86-4.18,8.65-4.82,13.5-.07.49-.1,1-.13,1.45l0,.28c-.26.23-.39.49-.24.78a31.66,31.66,0,0,0-1.44,3.76c-1.2,3.81-2.42,7.68-1.66,11.68a54.58,54.58,0,0,1,1-6.61c0-.13,0-.25.08-.38v0a14.55,14.55,0,0,1,.61-1.94v0c0-.09.07-.17.1-.25l.22-.51a1.42,1.42,0,0,0,.08-.18c.36-.88.51-1.86.83-2.77.08-.21.16-.41.25-.62v0c.23-.55.48-1.1.75-1.63a1.93,1.93,0,0,0,.34-.63,3.6,3.6,0,0,0,.29-.55l.47-.9h0c.15-.29.31-.58.47-.87l.1-.18.17-.31c.53-.94,1.09-1.86,1.67-2.77a5.36,5.36,0,0,0,.79-1.15.06.06,0,0,0,0,0,20.56,20.56,0,0,1,4.45-4.67c-.21.22-.66,1-.78,1.14-.36.47-.75.9-1.14,1.34a27.53,27.53,0,0,0-2,2.45,47.22,47.22,0,0,0-3,4.9l0,0a12.24,12.24,0,0,0-1.08,2.06c1.31-.6,2.75-1,4.09-1.53a32.9,32.9,0,0,0,3.9-1.82,43.49,43.49,0,0,0,5-3.16,19.79,19.79,0,0,0,4.67-4.27,22.32,22.32,0,0,0,3.94-6.15,18,18,0,0,0,1-3.53s0-.11,0-.16a12,12,0,0,0,.55-1.28c.25-.69.85-1.44-.26-1.69"/><path id="Fill_20-2" data-name="Fill 20" class="cls-11" d="M288.23,97.29A16.56,16.56,0,0,1,295,98.56a30.48,30.48,0,0,1,5.38,3.14,16.81,16.81,0,0,1,5.61,6.24,7.9,7.9,0,0,1,.84,5.45c-.62,2-2.34,3.66-4.6,3.31a8.35,8.35,0,0,1-3.74-2A14.21,14.21,0,0,1,295.4,111c-1.37-2.27-2.17-4.83-3.34-7.21-.55-1.12-1.08-2.26-1.74-3.33A5.33,5.33,0,0,0,289.14,99c-.26-.21-1.38-.57-.95-1a13.86,13.86,0,0,0-13.06,10.89c-.11.56-.2,1.12-.29,1.68-.06.36,0,1.66-.35,1.89-.7.5-.41-1-.38-1.24.08-.56.16-1.12.25-1.69a14.09,14.09,0,0,1,4.1-8.08A14.28,14.28,0,0,1,288.23,97.29Z"/></g></g></svg>