<svg xmlns="http://www.w3.org/2000/svg" viewBox="0 0 329.11 633.2"><defs><style>.cls-1{fill:none;stroke:#000;stroke-miterlimit:10;}.cls-2,.cls-5{fill:#dec896;}.cls-3{fill:#e4e4e4;}.cls-4{fill:#683e89;}.cls-5{fill-rule:evenodd;}.cls-6{fill:#1d1126;}.cls-7{fill:#67c4ba;}</style></defs><g id="Layer_2" data-name="Layer 2"><g id="Layer_1-2" data-name="Layer 1"><path class="cls-1" d="M323.7,143.23a12.61,12.61,0,0,1-12.62,12.61H284.22a12.62,12.62,0,1,1,0-25.23h6.1a143.77,143.77,0,0,0,5.11-26.06h1.41c1.23,0,2.48,0,3.71,0a136.53,136.53,0,0,0,5.24,26.08h5.29A12.62,12.62,0,0,1,323.7,143.23Z"/><path class="cls-1" d="M328.58,103s-13.49,1.29-28,1.49c-1.23,0-2.48,0-3.71,0h-1.41C280,104.47,265.09,103,265.09,103l3.76-64.67s14-1.37,28-1.37,28,1.37,28,1.37Z"/><path d="M296.53,18.59V5.48a.75.75,0,0,0-1.5,0V18.59a.75.75,0,0,0,1.5,0Z"/><path d="M280.72,21.33,274.13,10a.75.75,0,0,0-1.29.76l6.58,11.33a.75.75,0,0,0,1.3-.75Z"/><path d="M312.13,22.08l6.59-11.33a.75.75,0,0,0-1.3-.76l-6.58,11.34a.75.75,0,0,0,1.29.75Z"/><g id="Bottom_Standing_Shorts" data-name="Bottom Standing Shorts"><path class="cls-2" d="M234.47,603.18l.44,11.05-19.75,4.26-1-8-7-54.29L189.56,419l-9.83-76.62v0l-1.22-9.5-4.45-34.65,8.25-1.77h0l35.85-7.71,1.92-.41,14.89-3.2a98.1,98.1,0,0,1-1.92,15.53c-1.12,5.44-2.41,11.88-4.83,16.24a20.45,20.45,0,0,1-3.22,4.31c4.06,22.24,7.37,46.92,9.81,74.5L229,464.24l3.64,92Z"/><path class="cls-2" d="M182.81,287.19c-.17,3.12-.33,6.2-.5,9.23q-1,19.41-2,36.38-.28,4.88-.56,9.54-3.72,63.42-6.32,89.79-1.07,10.81-1.93,15.4c-2.08,10.94-6.1,47.71-20.82,116.72q-3.87,18.06-8.74,39.09-1.48,6.39-3.08,13l-20,10.87q1-13,1.82-25.06,1.44-20.37,2.55-38c4.34-68.52,5.19-105.4,4.68-112.22-.32-4.39-1.51-19.17-5.12-44.8,2.47-29.13,5.91-55.07,10.17-78.34-6.31-2.27-11.57-5.76-14.75-11.1-1.18-2-2.16-4.06-2.16-4.06a34.34,34.34,0,0,1-2.77-11c-.08-.85-.19-2.1-.32-3.71l27.36-4.62.66-.12Z"/><g id="Left_Shoe-5" data-name="Left Shoe-5"><path id="shoe-20" class="cls-3" d="M211,609.43a2.82,2.82,0,0,0-3.58,1.77.74.74,0,0,0,0,.14l-2.7,9.5A91,91,0,0,0,205.91,632h79.72s3.11-10.27-3.59-11.09-11.12-1.48-11.12-1.48l-37.05-16.52a1.42,1.42,0,0,0-1.87.71v0l-2.38,5.78s-6.2,2.89-10.08,2.89Z"/></g><g id="Right_Shoe-13" data-name="Right Shoe-13"><path id="shoe-21" class="cls-3" d="M144.55,608c1.87,3.82,2.8,5.74,3,6,3.46,4.54,8,3.36,11,8a9.74,9.74,0,0,1,1.39,3.54,10.08,10.08,0,0,1-.39,4.46c-1.54,4.17-15.92,3.1-30,3-12.31-.09-28.2.54-29-3a12.61,12.61,0,0,1,0-3,16.28,16.28,0,0,1,1-4c1.77-4.25,6.93-3.76,11-9,.62-.8.13-.34,3-5,2.22-3.6,3.34-5.42,4-6,2.39-2.1,5.34-2.07,11-2,5.39.07,9.69.12,12,3C142.81,604.33,142.74,604.3,144.55,608Z"/></g></g><path class="cls-4" d="M239.27,556.21H203.66Q190.79,503.92,179.92,459h0q-3.36-13.8-6.51-26.89-13.59-56.37-23.69-99.8Q145,311.86,141,294.25l-.3-1.32q-3.61-16-6.6-29.54h77.27c.79,2.64,1.57,5.31,2.33,8q2.34,8.35,4.5,17.27c.31,1.31.63,2.63.94,4q3.17,13.56,5.9,28.51c4.06,22.24,7.37,46.92,9.81,74.5C238.8,440.78,240.47,493.63,239.27,556.21Z"/><path class="cls-4" d="M223.82,271.43q-1.75,8-3.74,16.86c-.32,1.44-.65,2.9-1,4.37q-3.78,16.79-8.32,36.44-9.08,39.22-21.22,89.89-4.6,19.2-9.64,40-11.67,48.23-25.7,105.23h-35.6c-1.17-61,.38-112.69,4.15-157,2.47-29.13,5.91-55.07,10.17-78.34,2.23-12.22,4.69-23.7,7.36-34.52l.36-1.44q2.81-11.22,5.89-21.5Z"/><path id="Path_946" data-name="Path 946" class="cls-5" d="M182,121H164.55V103l14.83.36Q180.72,112.17,182,121Z"/><g id="Head"><path class="cls-5" d="M204.76,68.82c-4.24,20.22-18.27,40-31.44,40.27S146.87,90,142.31,69.4c1.92-3.68-1.74-23.23,8.51-34.53,4-4.39,9.21-6.61,14.74-7.55a54.1,54.1,0,0,1,16.63.17,59.48,59.48,0,0,0,7,.29,31.83,31.83,0,0,1,12.65,11.76C206.51,47.59,207,58.26,204.76,68.82Z"/></g><g id="Head-2" data-name="Head"><path class="cls-5" d="M147.32,187.39c-13.26-16.27-18.7-42.86-8.83-57.19s35.81-17.48,56.09-10.5c1.53,4.2,20.28,11.55,21.67,29.14.54,6.82-1.65,13.76-5.11,20.26a94,94,0,0,1-12.85,17.84c-2.11,2.57-4,5-5.59,7.39-4,2.56-11.28,6.56-19.27,6.85C163.3,201.55,154.25,195.88,147.32,187.39Z"/></g><path class="cls-6" d="M210.43,38a44.77,44.77,0,0,1-.25,20.17c-1.46,5.7-3.77,9.82-5.42,10.66A62.17,62.17,0,0,0,205.55,56c-.25-5.74-.53-11-3.7-16.46a20.59,20.59,0,0,0-4.3-5.54c-1.93-1.71-6.09-4.61-21-5a120.8,120.8,0,0,0-19,1,26.56,26.56,0,0,0-8,7c-4.37,5.81-5.15,12.12-6,19a69.41,69.41,0,0,0-.44,11.93c-.26.49-.53,1-.8,1.47-2.53-4.27-9.48-17.25-7.27-33.9.56-4.24,1.67-17.1,11.76-26.41,2.44-2.25,8.9-12.62,45.11-7.85,9.71,1.29,17.83,2.57,21.25.16,1.33,9.23-.62,17.41-7.63,22.13A55.8,55.8,0,0,1,210.43,38Z"/><g id="Body_Turtle_Neck" data-name="Body Turtle Neck"><path class="cls-7" d="M317.42,265.2a15.46,15.46,0,0,1-6.25,6.25c-6.77,3.59-13.72.41-14.58,0A95.8,95.8,0,0,1,235.13,236c.17,14.38.16,28.57,0,42.7,0,1.91,0,4-.16,6.34h0a98.1,98.1,0,0,1-1.92,15.53c-1.12,5.44-2.41,11.88-4.83,16.24a20.45,20.45,0,0,1-3.22,4.31c-3.6,3.71-8.58,6.22-14.22,7.93-9.41,2.86-20.68,3.48-30.49,3.7l-1.78,0-3.79.07a222.59,222.59,0,0,1-25-.58,70,70,0,0,1-16.78-3.44c-6.31-2.27-11.57-5.76-14.75-11.1-1.18-2-2.16-4.06-2.16-4.06a34.34,34.34,0,0,1-2.77-11c-.08-.85-.19-2.1-.32-3.71-.75-9.55-2.28-31.87-3.85-60.87a94.18,94.18,0,0,1-63.54,33.33l-8.33,7.29a23.84,23.84,0,0,0-12.5-4.16h-1q3.12-5.22,6.25-10.42A284.75,284.75,0,0,1,144.82,124.73c.16-2.78.31-5.56.47-8.34a5.67,5.67,0,0,1,6-5.35,69,69,0,0,0,43.84-.94,5.68,5.68,0,0,1,6,5.35l.46,8.34A337.25,337.25,0,0,1,311.17,257.91Z"/></g><path id="Path_932" data-name="Path 932" class="cls-2" d="M319.7,268.91c-.48,3.76-.7,4.43-.9,6.54a28.58,28.58,0,0,1-1,5,25.06,25.06,0,0,1-2.64,6.94,40.21,40.21,0,0,1-5.62,4.63c-3.21,2.18-4.81,3.27-6.94,3.3-3.06.05-5.48-1.88-7.68-3.64a13.81,13.81,0,0,1-3.56-3.63c-1.26-2-1.69-4.46-.66-12.89.33-2.74.84-6.28,1.65-10.4s17.95-2.26,23.14-.54S319.7,268.91,319.7,268.91Z"/><path id="Path_950" data-name="Path 950" class="cls-2" d="M21.21,269.91c.49,3.76.7,4.43.9,6.54a30.53,30.53,0,0,0,1,5,25.06,25.06,0,0,0,2.64,6.94A39.09,39.09,0,0,0,31.36,293c3.21,2.18,4.81,3.27,6.94,3.3,3.06.06,5.48-1.88,7.68-3.64a13.81,13.81,0,0,0,3.56-3.63c1.25-2,1.69-4.46.66-12.89-.34-2.74-.85-6.28-1.65-10.4s-17.95-2.26-23.15-.54S21.21,269.91,21.21,269.91Z"/><path d="M40.12,83.48c-7,.93-12.82-4.22-19.63-4.5S8.06,83.67,4.83,89.24A63.19,63.19,0,0,0,0,100.87c-.15.46.57.66.72.2,2.78-8.21,6.41-18.18,15.68-20.85,8.35-2.4,15.4,5.12,23.7,4,.47-.06.47-.81,0-.75Z"/><path d="M1.76,107.45q11.58,20.65,23.69,41a.38.38,0,0,0,.69-.09c1.25-7.4,3.62-15,8.58-20.78a21.57,21.57,0,0,1,18.21-7.83,15.29,15.29,0,0,1,10,4.71c.33.35.86-.18.53-.53-4.73-5.09-12.26-6-18.67-4-7.3,2.27-12.46,8.29-15.52,15.09a54.32,54.32,0,0,0-3.82,13.15l.69-.09Q14,127.72,2.41,107.07a.38.38,0,0,0-.65.38Z"/><path d="M45.56,88.36A64.89,64.89,0,0,1,63.4,115c.16.45.89.25.72-.2a65.62,65.62,0,0,0-18-27c-.36-.32-.89.21-.53.53Z"/><path d="M50.73,78.09A17.11,17.11,0,0,1,70.82,55.25a.38.38,0,0,0,.2-.73A17.86,17.86,0,0,0,50,78.29c.16.45.89.26.72-.2Z"/><path d="M71.51,56.43l25,44.67L103.65,114l.42-.55c-7.11-2.08-14.52-4.27-22-3.66-6,.49-11.92,2.75-15.9,7.37-.31.36.22.9.53.53,9.43-11,25.28-7,37.19-3.52a.38.38,0,0,0,.42-.55l-25-44.66L72.16,56.06c-.23-.43-.88-.05-.65.37Z"/></g></g></svg>