<svg xmlns="http://www.w3.org/2000/svg" viewBox="0 0 326.75 639.25">
    <defs>
        <style>.cls-1{fill:#90959c;}.cls-2,.cls-5{fill:#d4b79d;}.cls-2{fill-rule:evenodd;}.cls-3{fill:#dde3e9;}.cls-4{fill:#657d38;}.cls-6{fill:#683e89;}.cls-7{fill:#a4cc5a;}.cls-8{fill:#e03088;}.cls-9{fill:#823429;}.cls-10{fill:none;stroke:#000;stroke-miterlimit:10;stroke-width:0.71px;}</style>
    </defs>
    <g id="Layer_2" data-name="Layer 2">
        <g id="Layer_1-2" data-name="Layer 1">
            <path class="cls-1" d="M171.06,91.82a135,135,0,0,1,6.52,15.2,130.28,130.28,0,0,0,10,21.59,38.67,38.67,0,0,0,16.75,15.45c7.46,3.4,16.15,2.72,24.48-1.91a43.32,43.32,0,0,0,17.89-19.52,34.6,34.6,0,0,0,3-10.62,26.29,26.29,0,0,0-1-10.62A24.69,24.69,0,0,0,243,91.7a35.72,35.72,0,0,0-11.28-7.81C223,80.11,199.91,82,171.06,91.82Z"/>
            <path class="cls-1" d="M216.66,76A33.76,33.76,0,0,1,209,89.2a35.91,35.91,0,0,1-12,8.22A47.28,47.28,0,0,1,182.4,101a59.05,59.05,0,0,1-35.14-8.19C136.19,86,129.58,76.13,128.63,65a52.62,52.62,0,0,1,6-28.2c.36-.68.73-1.35,1.12-2a177.67,177.67,0,0,1,19-26.27q1.77-2,3.46-4.12c4.13-.49,9-.79,14.74-1.14,3.07-.19,5.85-.35,8.37-.46a216,216,0,0,1,26.47,31.38c6.41,9.55,10,17.58,10.63,23.15A48.71,48.71,0,0,1,216.66,76Z"/>
            <path id="Path_946" data-name="Path 946" class="cls-2" d="M183,119.25H165.52v-18l14.84.35Q181.68,110.43,183,119.25Z"/>
            <g id="Head">
                <path id="Path_948" data-name="Path 948" class="cls-2" d="M144.13,43.83c2.07-8.89,5.76-13.06,7.73-14.94,10.25-9.78,28.5-9.47,40.75-2,2.12,1.3,9.44,5.89,13.11,14.37,10.77,24.87-16.43,67.77-36.38,65.79C151.89,105.33,138.24,69.12,144.13,43.83Z"/>
            </g>
            <path class="cls-1" d="M212.8,26.28a19.56,19.56,0,0,1-4.35,8.95,23,23,0,0,1-4.95,4.41A21.91,21.91,0,0,1,187.56,43c-2.84,0-6.93.1-11.87,0-19.9-.29-24.56-1.89-27-2.86-4.22-1.71-10-4.08-13-10.19-.06-.14-.14-.28-.19-.42a19.82,19.82,0,0,1-.78-13.15,29.08,29.08,0,0,1,8.76-11.31c5.1-3.88,10.74-5,19.1-5,4.16,0,9,.24,14.78.55,3.07.16,5.85.32,8.37.49,10.55.75,16.61,1.94,20.86,6.24C207.28,8,214.81,15.86,212.8,26.28Z"/>
            <path id="Shirt-4" class="cls-3" d="M106.74,299.48H247.66a253.61,253.61,0,0,1-24.48-60.75c-5.57-21.57-5.29-32.47-10.66-56.48a351.48,351.48,0,0,0-21-64l-35,1a330,330,0,0,0-26.77,53.89c-.34.89-4.26,12.27-8.35,24.31C114.83,216.79,108,247.9,106.74,299.48Z"/>
            <path id="Skirt_Shadow" data-name="Skirt Shadow" class="cls-4" d="M104.18,595.81s54.81,15.33,94.57,15.33,73.86-23.61,73.86-23.61S219,571.8,184.28,571.8,104.18,595.81,104.18,595.81Z"/>
            <path class="cls-5" d="M224.32,564.47c-.46,7.6-.89,14.6-1.25,20.75-.25,4.28-.47,8.12-.64,11.46-.35,6.56-.52,11.11-.44,12.88a2.62,2.62,0,0,0,0,.29c.64,8.44-15,12.63-19.95,5.29a8.55,8.55,0,0,1-1.34-3.61c-.46-3.22-1-7.36-1.54-12.17-.56-5.07-1.17-10.89-1.76-17.15-.64-6.82-1.28-14.18-1.86-21.69-1.36-18-2.38-36.82-2.36-51.14,0-29,.71-55,1.57-69.53a8.89,8.89,0,0,1-.4-1.91c-.14-1.55-.75-4.92-1.71-9.7a145,145,0,0,1,37.42,6.08c0,.18,0,.36-.06.55C230.74,460.56,227,521.63,224.32,564.47Z"/>
            <g id="Right_Shoe-16" data-name="Right Shoe-16">
                <path id="shoe-27" class="cls-6" d="M199.9,614.41a3,3,0,0,0-3.86,1.91.57.57,0,0,0,0,.14l-2.91,10.24a99.08,99.08,0,0,0,1.37,12h85.89s3.35-11.07-3.86-12-12-1.59-12-1.59l-39.92-17.8a1.53,1.53,0,0,0-2,.77v0L220,614.42s-6.68,3.11-10.85,3.11Z"/>
            </g>
            <path class="cls-5" d="M154.54,439.69a8.11,8.11,0,0,1-.4,1.91c.85,14.56,1.52,40.51,1.57,69.53,0,14.56-1,33.78-2.42,52-.37,4.59-.75,9.09-1.13,13.47-.59,6.71-1.2,13.06-1.81,18.76-.78,7.28-1.53,13.46-2.16,17.88a8.85,8.85,0,0,1-1.21,3.41c-4.76,7.61-20.74,3.43-20.09-5.09a7.9,7.9,0,0,0,0-1.06v0c0-3-.32-10-.87-19.69v0c-.26-4.31-.55-9.15-.86-14.37-.09-1.45-.18-2.93-.27-4.43-2.3-37.71-5.8-92.9-6.11-124a90.63,90.63,0,0,1,8.88-13.39,191.85,191.85,0,0,1,28.68-5.22C155.33,434.51,154.69,438.08,154.54,439.69Z"/>
            <path class="cls-7" d="M98.32,408.53q-.91-2.28-1.8-4.28l.83-.51C97.63,405.39,98,407,98.32,408.53Z"/>
            <g id="Right_Shoe-16-2" data-name="Right Shoe-16">
                <path id="shoe-27-2" data-name="shoe-27" class="cls-6" d="M127.83,614.93a3.06,3.06,0,0,0-3.87,1.91s0,.1,0,.14L121,627.23a99.15,99.15,0,0,0,1.37,12l69.14-1c.07-.63.66-6.1,0-9a3.84,3.84,0,0,0-1-2,3.79,3.79,0,0,0-2-1c-1.82-.38-9.92-1.57-21-3a11.35,11.35,0,0,1-7-3,13,13,0,0,1-2-3c-4.21-7.41-4.38-8.66-6-9.35-.4-.16-2.27,0-6,.35-5,.46-5.5.67-6,1-2.23,1.5-1.54,3.54-4,5a8.93,8.93,0,0,1-4,1A14.8,14.8,0,0,1,127.83,614.93Z"/>
            </g>
            <path class="cls-7" d="M272.52,588.25a86.9,86.9,0,0,1-28,8.52c-7.6.94-13.7.69-21.12.23-8.47-.53-17-1.69-25.66-3-13.07-2-26.24-4.41-39.25-5.58a141.23,141.23,0,0,0-26.95-.2,86.68,86.68,0,0,0-22.34,5.11h-.07c-1.87.72-3.71,1.49-5.55,2.36-.86-7.86-1.82-19-2-32.44-.21-13,.2-31.36,4-60,3.93-29.58,6.79-34.87,10-56,7.47-49-1.68-61.33,3-111a375.5,375.5,0,0,1,13.06-68.37,167.87,167.87,0,0,0,97.47,0c18.26,37.45,23.33,68.52,24.47,90.37.85,16.15-.1,38.1-2,82-1,22.92-2,36.93,2,57,2.92,14.81,6.14,20.72,10.64,38.75A304.43,304.43,0,0,1,272.52,588.25Z"/>
            <path class="cls-8" d="M165.52,303.25l-39.63.81-9.37.19q-.47.9-1,1.77c-10,17.33-31.22,22.59-45,14.23-10.95-6.63-16.61-21.42-13-36.11A492.49,492.49,0,0,0,89.07,220s36.76-91,55-98.74a26.69,26.69,0,0,1,9.34-2l0,0,0,0h2.35c3.83,29.79,6.86,61.93,8.55,96.19C165.86,246.43,166.13,275.77,165.52,303.25Z"/>
            <path class="cls-9" d="M125.89,304.06l-9.37.19q-.47.9-1,1.77a539.82,539.82,0,0,1,4.59-56.77q1.23,22.78,4.24,45.31Q125.1,299.59,125.89,304.06Z"/>
            <path class="cls-8" d="M324.12,270.67q-1.31,9.29-2.6,18.58a45,45,0,0,1-3.4,6.89c-6.85,11.3-18.2,18.61-30.35,19.38-.75.06-1.51.08-2.27.08a33.63,33.63,0,0,1-3.95-.25c-12.81-1.58-21.18-10.14-23-12.1h-63a472.7,472.7,0,0,0,7.76-85.54,472.69,472.69,0,0,0-10-96.46h2.31l0,0,0,0s24.49,24.11,48.65,70q27.33,44,78,78.16Z"/>
            <path class="cls-9" d="M287.77,315.52c-.75.06-1.51.08-2.27.08a33.63,33.63,0,0,1-3.95-.25q-20.91-35.73-41.83-71.47Z"/>
            <path id="Path_950" data-name="Path 950" class="cls-5" d="M55.19,272.16c.48,3.76.7,4.43.9,6.54a29,29,0,0,0,1,5,25,25,0,0,0,2.63,6.94,40.21,40.21,0,0,0,5.62,4.63c3.21,2.18,4.82,3.27,7,3.3,3,.06,5.48-1.88,7.68-3.64a13.77,13.77,0,0,0,3.55-3.63c1.26-2,1.69-4.46.66-12.89-.33-2.74-.84-6.28-1.65-10.4s-18-2.26-23.14-.54S55.19,272.16,55.19,272.16Z"/>
            <path id="Path_932" data-name="Path 932" class="cls-5" d="M326.67,274.16c-.48,3.76-.7,4.43-.9,6.54a29.89,29.89,0,0,1-1,5,25.4,25.4,0,0,1-2.65,6.94,39.64,39.64,0,0,1-5.62,4.63c-3.21,2.18-4.81,3.27-6.94,3.3-3.05.05-5.48-1.88-7.68-3.65a13.93,13.93,0,0,1-3.56-3.62c-1.25-2.05-1.69-4.47-.66-12.89.34-2.74.85-6.28,1.65-10.4s17.95-2.26,23.15-.54S326.67,274.16,326.67,274.16Z"/>
            <path d="M63,62.2l2.21-9.09c.16-.67-.87-1-1-.29L62,61.91c-.17.67.87,1,1,.29Z"/>
            <path d="M51.6,61.43l-2.66-9a.53.53,0,0,0-1,.28l2.66,9a.53.53,0,0,0,1-.28Z"/>
            <path d="M73.25,67.24l6.48-6.75c.47-.5-.28-1.26-.76-.76l-6.48,6.75c-.47.5.28,1.26.76.76Z"/>
            <circle class="cls-10" cx="51.48" cy="103.74" r="27.12"/>
            <path d="M39.68,145.39l-2.2,9.09a.53.53,0,0,0,1,.28l2.21-9.09a.54.54,0,0,0-1-.28Z"/>
            <path d="M29.45,140.35,23,147.1c-.48.49.28,1.25.76.75l6.47-6.75c.48-.49-.28-1.25-.76-.75Z"/>
            <path d="M51.1,146.16l2.66,9a.54.54,0,0,0,1-.29l-2.66-9a.54.54,0,0,0-1,.29Z"/>
            <path d="M9.76,92.12.67,89.92c-.67-.17-1,.87-.29,1l9.09,2.21c.67.16,1-.87.29-1Z"/>
            <path d="M13.19,115.32l-9,2.66a.54.54,0,0,0,.29,1l9-2.66a.54.54,0,0,0-.29-1Z"/>
            <path d="M14.8,81.89,8.05,75.42c-.5-.48-1.26.28-.76.76L14,82.65c.5.48,1.26-.28.76-.76Z"/>
            <path d="M93,115.46l9.09,2.21a.54.54,0,0,0,.28-1l-9.09-2.2a.53.53,0,0,0-.28,1Z"/>
            <path d="M87.91,125.69l6.75,6.47c.49.48,1.25-.27.75-.75l-6.75-6.48c-.49-.47-1.25.28-.75.76Z"/>
            <path d="M93.72,104l9-2.66a.54.54,0,0,0-.29-1l-9,2.66a.54.54,0,0,0,.29,1Z"/>
            <path d="M235.56,67.57c7.62-.59,16-1.3,23.1,2.23,5.76,2.88,10.56,8.81,9.75,15.54-.05.48.7.48.75,0,.81-6.72-3.8-12.75-9.47-15.84-7.3-4-16.15-3.3-24.13-2.68-.48,0-.48.78,0,.75Z"/>
            <path d="M265.75,142.63a22.83,22.83,0,0,1-20.21,17.63c-.48,0-.48.79,0,.75a23.58,23.58,0,0,0,20.93-18.18c.1-.47-.62-.67-.72-.2Z"/>
            <path d="M274.75,156.63a22.83,22.83,0,0,1-20.21,17.63c-.48,0-.48.79,0,.75a23.58,23.58,0,0,0,20.93-18.18c.1-.47-.62-.67-.72-.2Z"/>
        </g>
    </g>
</svg>