<svg xmlns="http://www.w3.org/2000/svg" viewBox="0 0 327.34 624.07"><defs><style>.cls-1{fill:#b5875c;}.cls-1,.cls-8{fill-rule:evenodd;}.cls-2,.cls-8{fill:#472b1f;}.cls-3{fill:#683e89;}.cls-4{fill:#e8e8e8;}.cls-5{fill:#191847;}.cls-6{fill:#a4cc5a;}.cls-7{fill:#e4e4e4;}.cls-9{fill:#0e0e29;}</style></defs><g id="Layer_2" data-name="Layer 2"><g id="Layer_1-2" data-name="Layer 1"><path id="Path_946" data-name="Path 946" class="cls-1" d="M158.9,130.07H141.41v-18l14.83.36Q157.57,121.23,158.9,130.07Z"/><path id="Leg-16" class="cls-2" d="M106.88,303.62l6.63,168.9-3.08,147.22,14.64-7.47,31.44-334Z"/><path id="Pant-6" class="cls-3" d="M104.41,583.07l31,.62c5.66-44.93,30.79-230.11,8.71-299.07L91.41,299.07c-1.9,43-2.22,89.87,0,140C93.71,490.94,98.41,539.11,104.41,583.07Z"/><path id="Leg-16-2" data-name="Leg-16" class="cls-2" d="M200.23,305.25,187.39,471l-3,144.11-13.2-6.74-15.7-325.95Z"/><path id="Pant-6-2" data-name="Pant-6" class="cls-3" d="M192.41,579.07l-33,0c-5.66-44.92-30.8-230.1-8.72-299.06L216,313.31c-1.85,46.17-5,94.46-9.62,144.66Q200.55,520.87,192.41,579.07Z"/><path class="cls-4" d="M211.24,295.29v0c-.44,2.84-1.27,5-2.55,5.21l-3.71.67h-.06c-10.54,1-32.14,2.74-55.56,3.11h-.64c-23.4-.37-45-2.13-55.54-3.11h-.06c-1.27-.2-2.5-.44-3.72-.67s-2.09-2.36-2.54-5.2h0c-.84-5.31-.38-13.15.73-16,.37-1,.74-1.93,1.12-2.89h0c6.58-60.26,19.15-106.13,42.26-146.31v0c.47-5.73.72-11.37.72-17a22.48,22.48,0,0,0,8.58,2,73.46,73.46,0,0,0,8.78,0h.07a71.8,71.8,0,0,0,8.68,0h0a22.86,22.86,0,0,0,8.58-2c0,5.63.25,11.25.72,17,0,0,0,0,0,0,23.07,40.19,35.66,86.08,42.25,146.37.36.94.74,1.89,1.1,2.84C211.62,282.16,212.08,290,211.24,295.29Z"/><path class="cls-5" d="M211.67,305.51s-2.44.27-6.69.66c1.25-.21,2.49-.43,3.71-.66s2.11-2.33,2.55-5.13C211.39,302.07,211.52,303.78,211.67,305.51Z"/><path id="Coat_Front-8" data-name="Coat Front-8" class="cls-6" d="M221.41,283.07a342.88,342.88,0,0,0-4-49c12.85,12.27,25.91,25.58,39,40q7.77,8.54,15,17l29-17c-35.63-56.61-63.59-89.34-83-109-5.9-6-42.06-42.22-42.06-42.22h-13.9a440.4,440.4,0,0,1,15,121.22,439.46,439.46,0,0,1-12,95h53A343.8,343.8,0,0,0,221.41,283.07Z"/><path id="Coat_Front-8-2" data-name="Coat Front-8" class="cls-6" d="M90.41,227.07c-10.77,9.65-21.81,20-33,31q-16.5,16.24-31,32l-25-19c19.36-38.1,40-64.33,55-81,0,0,11.71-13,70.59-67.22h13.89a331.45,331.45,0,0,0-19.76,140,325.72,325.72,0,0,0,15.28,76.23l-56-2Q85.42,282.06,90.41,227.07Z"/><path id="Buttons" d="M104.51,269.52a4.91,4.91,0,1,1,4.37,5.4A4.9,4.9,0,0,1,104.51,269.52Zm-1.35-30.22a4.91,4.91,0,1,1,4.37,5.4A4.9,4.9,0,0,1,103.16,239.3Zm0-26.77a4.91,4.91,0,1,1,4.37,5.41A4.9,4.9,0,0,1,103.13,212.53Z"/><g id="Right_Show" data-name="Right Show"><path id="shoe-28" class="cls-7" d="M131.39,601.28a2.79,2.79,0,0,1,3.56,1.79s0,.1,0,.14l2.58,9.6a94.88,94.88,0,0,1-1.4,11.26l-79.62-.25s-3-10.38,3.71-11.18,11.13-1.46,11.13-1.46l37.2-16.55a1.38,1.38,0,0,1,1.85.72l0,0,2.31,5.84s6.16,2.94,10,2.95Z"/></g><g id="Right_Show-2" data-name="Right Show"><path id="shoe-28-2" data-name="shoe-28" class="cls-7" d="M167,601.28a2.8,2.8,0,0,0-3.56,1.79s0,.1,0,.14l-2.58,9.6a94.88,94.88,0,0,0,1.4,11.26l79.62-.25s3-10.38-3.71-11.18S227,611.18,227,611.18l-37.2-16.55a1.39,1.39,0,0,0-1.85.72l0,0-2.31,5.84s-6.15,2.94-10,2.95Z"/></g><g id="Head"><path id="Path_948" data-name="Path 948" class="cls-8" d="M117.83,58.27c1-9.06,4.22-13.64,6-15.73,9.05-10.9,27.22-12.7,40.25-6.7,2.26,1,10.05,4.76,14.68,12.76,13.57,23.46-8.48,69.22-28.53,69.56C132.65,118.46,114.91,84.07,117.83,58.27Z"/></g><path id="hair-6" class="cls-9" d="M205.22,38.9a7.62,7.62,0,0,0-2.5-7.19,6.4,6.4,0,0,0-1.68-1c-.21-.09-.3,0-.33-.25a2.32,2.32,0,0,1,.13-.58,10.82,10.82,0,0,0,.2-1.39,11.12,11.12,0,0,0-.7-4.65,12.62,12.62,0,0,0-5.48-6.64,10.78,10.78,0,0,0-4.5-1.3,17,17,0,0,0-2.47,0c-.25,0-1.13.23-1.31.11s-.4-.92-.51-1.14a13.33,13.33,0,0,0-6.67-6c-3.15-1.39-6.25-2.59-9.77-1.76a19.69,19.69,0,0,0-2.2.65c-.37.14-.76.29-1.12.45l-.66.32c-.37.2-.38.31-.61,0a6.91,6.91,0,0,0-3.75-2.87,9.9,9.9,0,0,0-2.87-.4,6.21,6.21,0,0,1-1.48.08c-.29-.13-.71-.87-1-1.12a10.66,10.66,0,0,0-4.84-2.77,14,14,0,0,0-5.87-.2,7.46,7.46,0,0,0-2.62.92c-.36.21-.7.45-1.07.63s-.59.15-.76.32a12,12,0,0,0-1.66-1.91,5.47,5.47,0,0,0-3-1.21,12.86,12.86,0,0,0-6.22,1.35A14.94,14.94,0,0,0,127.12,3c-.42.31-.83.64-1.22,1a5,5,0,0,1-.59.54c-.27.17-.38.13-.72.11a10,10,0,0,0-5.09,1,10.38,10.38,0,0,0-4,3.53,2.78,2.78,0,0,1-.33.51c-.1,0-.39-.13-.51-.16a8.91,8.91,0,0,0-1.26-.31A10.05,10.05,0,0,0,111,9a12.1,12.1,0,0,0-8.18,4.16A15.08,15.08,0,0,0,99,22.3a9.75,9.75,0,0,0,0,1.62c0,.32.09.35-.14.57s-.58.46-.85.69a14.63,14.63,0,0,0-2.29,2.61A16.11,16.11,0,0,0,93.21,33,8.13,8.13,0,0,0,93,35.6a7.62,7.62,0,0,0,.21,1.34c.06.22.13.45.21.66a3,3,0,0,1,.15.38,1.19,1.19,0,0,0,.09.23c0,.1-.13.21-.14.21-.19.15-3.52,5.25-1.68,10.47a9.79,9.79,0,0,0,4.73,5.36c-1,1.18-4.14,5.33-3.68,10.57,0,.6.64,6.64,4,7.38a4.31,4.31,0,0,0,3-.6,13.94,13.94,0,0,0,7.06,5.17c6.29,2,11.68-1.53,12.47-2.06a36.93,36.93,0,0,0,2.57-11.81,35.45,35.45,0,0,0-1-10.46,27,27,0,0,0,4.36-5.25,27.33,27.33,0,0,0,3.56-8.45,18.89,18.89,0,0,0,9.09.12,20.63,20.63,0,0,0,8.34-4.14,15.3,15.3,0,0,0,9.91,3.3,16.08,16.08,0,0,0,7.21-2,16.71,16.71,0,0,0,6.55,8.58,15.75,15.75,0,0,0,8.18,2.5,24.21,24.21,0,0,1,2.32,6.45,25.34,25.34,0,0,1,.48,6.65,17.39,17.39,0,0,0-.06,5.34c.21.73,3.41,2.55,4.7,2.58a6.87,6.87,0,0,0,3.75-1.2,4.24,4.24,0,0,0,1.4-2.31c.13-.53.15-1.08.26-1.61a5.44,5.44,0,0,0,.16-1.33,3,3,0,0,0-1.08-2.2,9.32,9.32,0,0,0,3-1.78,12.83,12.83,0,0,0,2.5-3,4.7,4.7,0,0,0,.67-2.9,7.49,7.49,0,0,0-1.34-2.87,15.9,15.9,0,0,0,4.58-2.07A12.16,12.16,0,0,0,205.22,38.9Z"/><path class="cls-5" d="M93.12,306.17c-4.25-.39-6.69-.66-6.69-.66.13-1.71.28-3.42.43-5.12.45,2.8,1.25,4.88,2.54,5.12S91.85,306,93.12,306.17Z"/><path id="Path_932" data-name="Path 932" class="cls-2" d="M301.56,276c-.48,3.77-.7,4.43-.9,6.54a29.5,29.5,0,0,1-1,5,25.28,25.28,0,0,1-2.65,6.94,38.32,38.32,0,0,1-5.62,4.63c-3.21,2.18-4.81,3.27-6.94,3.31-3.05,0-5.48-1.89-7.68-3.65a14,14,0,0,1-3.56-3.63c-1.25-2-1.69-4.46-.66-12.89.34-2.73.85-6.28,1.65-10.4s17.95-2.25,23.15-.54S301.56,276,301.56,276Z"/><path id="Path_950" data-name="Path 950" class="cls-2" d="M.08,274c.48,3.77.7,4.43.9,6.54a28.58,28.58,0,0,0,1,5,25.1,25.1,0,0,0,2.63,7,39.45,39.45,0,0,0,5.62,4.62c3.21,2.18,4.82,3.27,7,3.31,3,0,5.48-1.89,7.68-3.65a13.89,13.89,0,0,0,3.55-3.62c1.26-2.05,1.69-4.47.66-12.89-.33-2.74-.84-6.28-1.65-10.4s-17.95-2.26-23.14-.55S.08,274,.08,274Z"/><path d="M35.86,57.58c-3.47-2-8-4.19-11.73-1.57-2.6,1.8-3.71,5.07-4.05,8.09a26.44,26.44,0,0,0,2.29,12.69c1.53,3.69,3.8,7.94,7.42,10a7.71,7.71,0,0,0,5.06.92,6,6,0,0,0,2.28-.88c.88-.58,1.69-2.26,2.88-2.1a24.93,24.93,0,0,1,2.63,1.06A9.17,9.17,0,0,0,45.2,86a11.06,11.06,0,0,0,5-1.52c7.53-4.4,7.1-14.69,3.72-21.62-1.85-3.8-5.06-7.39-9.39-8.22-3.7-.71-7.82.55-9.82,3.89l.68.09a22.19,22.19,0,0,1,6.8-19.41c.36-.33-.18-.86-.53-.53a22.93,22.93,0,0,0-7,20.14c0,.33.53.34.68.09,1.83-3.05,5.61-4.18,9-3.55,3.62.68,6.43,3.46,8.22,6.54,3.67,6.28,4.89,16.41-1.72,21.27a9.34,9.34,0,0,1-9.65,1.2c-1.34-.65-2.2-.61-3.18.53A5.56,5.56,0,0,1,33.38,87c-4.21-.13-7-4-8.81-7.38a31.26,31.26,0,0,1-3.76-11.82c-.33-3.34.16-7.28,2.39-9.94,3.39-4.05,8.5-1.89,12.28.35.41.25.79-.4.38-.65Z"/><path d="M34.81,56.91c-3.24-1.22-5.35-4.22-6.6-7.33a24.81,24.81,0,0,1-.8-2.39,2.88,2.88,0,0,1-.2-1.12c.09-.57.88.09,1.16.28a13.17,13.17,0,0,1,3.68,3.83,13.46,13.46,0,0,1,2,5.65c0,.47.8.48.75,0A14.39,14.39,0,0,0,28.6,45.6c-.63-.42-1.7-1-2.07.07a4.37,4.37,0,0,0,.4,2.55,19.16,19.16,0,0,0,2.66,5.45,11.12,11.12,0,0,0,5,4c.46.17.65-.56.2-.73Z"/><path d="M14.64,110a31.66,31.66,0,0,0,24,11.39.75.75,0,0,0,0-1.5A30.23,30.23,0,0,1,15.7,109c-.61-.74-1.67.32-1.06,1.06Z"/><path d="M266.91,136.62c2.64-8.85,5.28-17.71,8.13-26.5,2.27-7,4.64-16,11.88-19.5,3.16-1.55,7.18-2,10.33-.22s4.54,5.61,4.34,9.19c-.48,8.21-8.14,13.64-13.83,18.55l-23.68,20.43c-.36.32.17.85.53.53l23.12-19.95c5.85-5.05,13.64-10.5,14.55-18.85a11.19,11.19,0,0,0-2.79-9.12,10.16,10.16,0,0,0-9-2.51c-8,1.31-11.93,8.82-14.38,15.75-3.71,10.52-6.76,21.31-9.95,32a.37.37,0,0,0,.72.2Z"/><path d="M298.46,88a101,101,0,0,1,8.34-23l-.68-.29a27.07,27.07,0,0,0-1.42,12.17.38.38,0,0,0,.74.1,55.65,55.65,0,0,1,21-25.89l-.55-.42a67.27,67.27,0,0,1-10.48,21.23c-.23.32.21.68.52.52l11.25-6.09-.51-.51a59,59,0,0,1-29.32,23.31c-.45.16-.25.88.2.72a59.82,59.82,0,0,0,29.77-23.65c.21-.33-.2-.69-.52-.52l-11.25,6.09.51.51a67.61,67.61,0,0,0,10.55-21.41.38.38,0,0,0-.55-.42,56.5,56.5,0,0,0-21.32,26.33l.74.1a26.48,26.48,0,0,1,1.39-12c.15-.4-.49-.67-.68-.29a102.2,102.2,0,0,0-8.43,23.23c-.11.47.62.67.73.2Z"/><path d="M242.83,98.24a20.58,20.58,0,0,1,13.84-21.36c.46-.15.26-.87-.2-.72a21.33,21.33,0,0,0-14.39,22.08c.06.47.81.48.75,0Z"/><path d="M278.66,175.92a62.43,62.43,0,0,0,21.15-29.4c.15-.46-.57-.65-.73-.2a61.39,61.39,0,0,1-20.8,29c-.38.29,0,.94.38.65Z"/></g></g></svg>