<svg xmlns="http://www.w3.org/2000/svg" viewBox="0 0 306.46 658.7"><defs><style>.cls-1,.cls-7{fill:#8c6a5b;}.cls-1{fill-rule:evenodd;}.cls-2{fill:none;}.cls-3{fill:#ea5e4a;}.cls-4{fill:#38214a;}.cls-5{fill:#dde3e9;}.cls-6{fill:#a4cc5a;}.cls-8{fill:#3b234e;}</style></defs><g id="Layer_2" data-name="Layer 2"><g id="Layer_1-2" data-name="Layer 1"><path id="Path_946" data-name="Path 946" class="cls-1" d="M143.64,149H126.16V131l14.83.36Q142.31,140.17,143.64,149Z"/><g id="Head"><path id="Path_948" data-name="Path 948" class="cls-1" d="M102.57,77.21c1-9.07,4.22-13.64,6-15.73,9-10.9,27.22-12.71,40.24-6.7,2.26,1,10.06,4.76,14.69,12.76C177,91,155,136.75,134.93,137.1,117.4,137.4,99.65,103,102.57,77.21Z"/></g><g id="Head-2" data-name="Head"><path id="Path_948-2" data-name="Path 948" class="cls-1" d="M102.57,170.21c1-9.07,4.22-13.64,6-15.73,9-10.9,27.22-12.71,40.24-6.7,2.26,1,10.06,4.76,14.69,12.76C177,184,155,229.75,134.93,230.1,117.4,230.4,99.65,196,102.57,170.21Z"/></g><line class="cls-2" x1="132.54" y1="328.63" x2="122.79" y2="330.97"/><path class="cls-3" d="M236.12,639,210,637,174,505.9,153.16,414,134.74,638.15l-25.49,6.11C100,569,92.44,490.52,87.16,409q-3.09-47.67-5-94l51-23,64-2q8.06,51.47,15,105C223.06,479.33,230.85,560.78,236.12,639Z"/><path id="hair-5" class="cls-4" d="M141.86,42A54,54,0,0,0,124.57,40a29.73,29.73,0,0,0,2.11-15c-.62-5-2.84-9.18-4.88-13.6a18.67,18.67,0,0,0-3.62-5.62,12.27,12.27,0,0,0-5.83-3.13,15.54,15.54,0,0,0-6.72,0c-1,.2-1.85.65-2.81.9s-1.46-.36-2.18-1A12.24,12.24,0,0,0,94.24.09,16.42,16.42,0,0,0,87,1a14.18,14.18,0,0,0-6.08,3.89,10.28,10.28,0,0,0-1.82,2.78c-.17.43-.2.68-.62.83s-.85.15-1.26.29a15.7,15.7,0,0,0-9,8.21A25.88,25.88,0,0,0,66.7,27.66c.13,4.45,4.16,16.08,7.92,20.32a25.27,25.27,0,0,0,13.06,7.38A49,49,0,0,0,83.16,68a51.89,51.89,0,0,0-1,12,53.34,53.34,0,0,0,2,15c1.36,4.57,5,16.88,15,21,4.69,1.94,10.92,2.11,12,0,.56-1.1-.53-2.3-2-5-2.12-3.89-5-9.74-4.32-15.61.21-1.68.52-3.89,2.32-5.39,2.62-2.18,6.39-1.17,7-1a43.91,43.91,0,0,1,4-14c1.67-3.5,2.81-5.88,5-8,7.52-7.28,22.83-7.58,32.84-1.66,4.72,2.79,7.67,6.61,9.16,5.66s.25-5.31-1-9l-2.94-4.81C158.36,52.72,147.51,43.68,141.86,42Z"/><path id="Shirt-3" class="cls-5" d="M83,304H191.1a3.39,3.39,0,0,0,2-.59c2.77-2,1.66-8.5,1.27-10.84-1.43-8.48-16.43-71-37.24-155.67q-11,23.94-22,47.87-11.5-23.94-23-47.87c-6.25,21.31-12.14,44.9-17.06,70.61A765,765,0,0,0,83,304Z"/><path id="Coat_Front-3" data-name="Coat Front-3" class="cls-6" d="M24.16,307.9a295.08,295.08,0,0,1-15-37.3c-4.21-13-5.11-18.91-5-25a59.37,59.37,0,0,1,6-24.7,237.52,237.52,0,0,1,67-64,13.79,13.79,0,0,1-6-6c-1.81-3.62-2.23-8.71,0-12,2-3,5.08-2.75,27-3,10-.11,14.76-.22,18,3.23,2.61,2.8,2.9,6.49,3,8,4.76,74.33,11,176,11,176a166.78,166.78,0,0,1-41,1,164.48,164.48,0,0,1-20-3.23,431.29,431.29,0,0,1,0-102.3,93.65,93.65,0,0,0-17,12c-6.59,5.84-11.41,10.11-14,17-1.27,3.34-2.31,8.1,0,22a169.69,169.69,0,0,0,9,33Z"/><path id="Coat_Front-3-2" data-name="Coat Front-3" class="cls-6" d="M247,307.9a295.08,295.08,0,0,0,15-37.3c4.2-13,5.1-18.91,5-25a59.37,59.37,0,0,0-6-24.7,237.52,237.52,0,0,0-67-64,13.84,13.84,0,0,0,6-6c1.8-3.62,2.23-8.71,0-12-2-3-5.08-2.75-27-3-10-.11-14.76-.22-18,3.23-2.59,2.77-2.89,6.42-3,8-1.31,19.09-6.32,123.14-8.8,154.6-.34,4.21-1,11.81-2.2,21.4a340.71,340.71,0,0,0,41,1q10-.36,19.17-1.23c1.3-19.17,2-39.55,2-61,0-15-.45-29.45-1.17-43.3a94,94,0,0,1,17,12c6.59,5.84,11.4,10.11,14,17,1.26,3.34,2.3,8.1,0,22a170.42,170.42,0,0,1-9,33Z"/><path id="Path_932" data-name="Path 932" class="cls-7" d="M253.31,295.91c-.49,3.76-.7,4.43-.9,6.54a30.53,30.53,0,0,1-1,5,25.06,25.06,0,0,1-2.64,6.94,40.21,40.21,0,0,1-5.62,4.63c-3.21,2.18-4.82,3.27-6.94,3.3-3.06.05-5.48-1.88-7.69-3.64a13.77,13.77,0,0,1-3.55-3.63c-1.26-2-1.7-4.46-.66-12.89.33-2.74.84-6.28,1.64-10.4s18-2.26,23.15-.54S253.31,295.91,253.31,295.91Z"/><path id="Path_950" data-name="Path 950" class="cls-7" d="M19.82,291.91c.49,3.76.7,4.43.9,6.54a30.53,30.53,0,0,0,1,5,25.36,25.36,0,0,0,2.63,6.94A40.21,40.21,0,0,0,30,315c3.22,2.18,4.82,3.27,6.95,3.3,3.05.06,5.48-1.88,7.68-3.64a13.77,13.77,0,0,0,3.55-3.63c1.26-2,1.7-4.46.67-12.89-.34-2.74-.85-6.28-1.65-10.4s-18-2.26-23.15-.54S19.82,291.91,19.82,291.91Z"/><g id="Right_Shoe-15" data-name="Right Shoe-15"><path id="Shoe-25" class="cls-8" d="M136.69,656.93l-1.36-28.65H106.68C86.3,642.6,53.47,651.47,53.47,651.47v5.46h51.84l17.74-2.73v2.73Z"/></g><g id="Right_Shoe-15-2" data-name="Right Shoe-15"><path id="Shoe-25-2" data-name="Shoe-25" class="cls-8" d="M206.24,658.7l1.37-28.65h28.64c20.38,14.33,53.21,23.19,53.21,23.19v5.46H237.62L219.88,656v2.73Z"/></g><path d="M243.26,54.67l-17.33,49.25c-1.1,3.13-2.35,6.52-1.78,9.89s3.11,5.18,6,6.52a230.5,230.5,0,0,0,22.68,9c2,.66,3.91,1.31,5.87,1.93a53,53,0,0,0,5.74,1.68c3.06.58,4.8-1.39,5.67-4.1,1.24-3.9,2-8,3-12L276.22,104l6.23-25.42,3.14-12.84,1.54-6.3c.43-1.73,1.24-3.7,1.17-5.51-.12-3.07-3.87-3.61-6.2-4.07q-6.37-1.29-12.77-2.51T256.79,45l-6.28-1.14c-1.23-.21-2.43-.46-3.51.36-.62.48-.84,1.15-.22,1.72.36.33.89-.2.53-.53s.65-.87.83-.93a2.92,2.92,0,0,1,1.44,0c1,.16,1.94.34,2.9.52,1.93.34,3.87.69,5.8,1q5.79,1.06,11.58,2.17,5.53,1.06,11.08,2.18a22,22,0,0,1,4.61,1.13A3.35,3.35,0,0,1,287.29,53c.59,1.12,0,2.51-.23,3.64l-11.15,45.53-5.58,22.76c-.77,3.18-1.42,8.22-5.9,7.3a92.56,92.56,0,0,1-10.51-3.27c-7.25-2.45-14.4-5.23-21.4-8.33-3-1.31-6.42-2.65-7.44-6.06s.33-6.85,1.41-9.93Q235.22,79.72,244,54.87c.16-.46-.56-.66-.72-.2Z"/><path d="M251.5,113.85c2,1.33,1.85,5-.55,5.87a3.74,3.74,0,0,1-3.4-.6,2.94,2.94,0,0,1-1-3.34,3.52,3.52,0,0,1,3.44-2.45c.49,0,.48-.72,0-.75a4.22,4.22,0,0,0-3.91,2.38,3.75,3.75,0,0,0,.56,4.33,4.49,4.49,0,0,0,4.07,1.27,3.71,3.71,0,0,0,2.85-3,4.25,4.25,0,0,0-1.68-4.38c-.4-.26-.78.39-.37.65Z"/><path d="M288.11,37l7.62,2.67c.45.16.65-.57.2-.73l-7.62-2.66c-.46-.16-.65.56-.2.72Z"/><path d="M300.29,75.45l5.72,2c.45.16.65-.56.2-.72l-5.72-2c-.45-.16-.65.56-.2.72Z"/><path d="M224.93,70.72l-5.71-2c-.45-.16-.65.57-.2.73l5.72,2c.45.16.65-.57.19-.73Z"/><path d="M243.18,142.74l-1.34,3.81a.38.38,0,0,0,.27.46.39.39,0,0,0,.46-.26l1.33-3.81a.37.37,0,0,0-.26-.46.38.38,0,0,0-.46.26Z"/><path d="M237.46,27.16,236.12,31a.38.38,0,0,0,.73.2l1.33-3.81a.37.37,0,1,0-.72-.2Z"/><path d="M280.43,144.39l7.62,2.67c.46.16.65-.57.2-.72l-7.62-2.67c-.45-.16-.65.56-.2.72Z"/><path d="M293.15,105l7.62,2.67c.45.16.65-.57.2-.73l-7.62-2.66c-.46-.16-.65.56-.2.72Z"/><path d="M19.86,145.68A39.4,39.4,0,0,1,.55,139.46c-.4-.26-.78.38-.38.64a40.26,40.26,0,0,0,19.69,6.33c.48,0,.48-.72,0-.75Z"/><path d="M50.07,120.27,22,96.64c-.36-.31-.9.22-.53.53L49.54,120.8c.37.31.9-.22.53-.53Z"/></g></g></svg>