<svg xmlns="http://www.w3.org/2000/svg" viewBox="0 0 372.62 612.72"><defs><style>.cls-1{fill:#67c4ba;}.cls-2{fill:#ff4133;}.cls-3,.cls-5{fill:#c29d7d;}.cls-3{fill-rule:evenodd;}.cls-4{fill:#fff;}.cls-6{fill:#191847;}.cls-7{fill:#ffc37f;}</style></defs><g id="Layer_2" data-name="Layer 2"><g id="Layer_1-2" data-name="Layer 1"><path class="cls-1" d="M165.35,277l-4.73,17.09Q162.89,285.22,165.35,277Z"/><path id="Coat_Front-5" data-name="Coat Front-5" class="cls-2" d="M23.88,263.72A898.39,898.39,0,0,1,179.72,127.44a57.81,57.81,0,0,0-7.84-23.72,37.6,37.6,0,0,1,12,4,38.4,38.4,0,0,1,14.35,13.54c0,33-1,67.64-3.46,103.88q-1.87,27.59-4.62,53.74L144.6,295.54c-.53-4.47-1.12-10.57-1.41-17.82a270.78,270.78,0,0,1,.69-30c.66-10,1.83-22.92,4-38a245.82,245.82,0,0,1-50.15,41.13,246.12,246.12,0,0,1-56.85,25.87Z"/><path id="Path_946" data-name="Path 946" class="cls-3" d="M217.88,147.72h-20v-48l17,1Q216.37,124.2,217.88,147.72Z"/><path id="Shirt-5" class="cls-4" d="M170.19,296.72l91.29,27a3,3,0,0,0,2-.71c2.76-2.39,1.66-10.33,1.27-13.18-2.15-15.57-37.11-169.88-39.88-182.11-2.65,8.52-9,14.17-16,14.28-6.79.11-13-5-16-13a226,226,0,0,0-22.69,167.7Z"/><polygon class="cls-5" points="189.54 276.09 188.43 276.13 188.22 276.14 188.22 276.13 188.21 276.09 189.54 276.09"/><polygon class="cls-5" points="288.38 587.21 264.04 587.21 263.54 584.48 260.71 568.91 286.95 568.91 288.21 585.09 288.38 587.21"/><path class="cls-5" d="M169.52,569q-3,7.86-6.19,16.11-1.2,3.08-2.44,6.21l-25.3.91q1.14-4.09,2.21-8.09,2.1-7.76,4-15.14Z"/><path class="cls-1" d="M189.54,276.09l-1.11,0h-.21l-1.09,0s0,0,0-.05,0,0,0,0Z"/><g id="Left_Shoe-9" data-name="Left Shoe-9"><path id="Shoe-30" class="cls-6" d="M299.22,608.5l-1.32-21.32a1.41,1.41,0,0,0-1.27-1.32l-29.54-2.7L216.44,602a2.82,2.82,0,0,0-1.73,3.41l2.08,7.35h79.64Z"/></g><g id="Right_Shoe-17" data-name="Right Shoe-17"><path id="Shoe-31" class="cls-6" d="M172.89,608.33,171.57,587a1.4,1.4,0,0,0-1.28-1.31L140.76,583,90.1,601.8a2.8,2.8,0,0,0-1.72,3.4l2.08,7.36H170.1Z"/></g><path class="cls-1" d="M292.31,568.91h-35.6Q235,480.82,219,413.72h0q-2-8.55-4-16.76L180.87,538h0q-3.7,15.13-7.6,30.94H137.66c-2.4-125.34,6.67-211.65,23-274.89h0L165.35,277c.09-.28.17-.55.25-.83h21.52s0,0,0,.05l1.09,0h.21l1.11,0h74.84C283.76,340.74,294.94,431.3,292.31,568.91Z"/><path class="cls-1" d="M188.43,276.13h-.21l-1.09,0s0,0,0-.05Z"/><path id="Hair_Front" data-name="Hair Front" class="cls-7" d="M183.16,101.5l-46.78,2.34a84.28,84.28,0,0,1-.47-14.64,40.64,40.64,0,0,1,1.85-10.08,37.75,37.75,0,0,1,7.64-12.61c2.55-2.79,4.26-6.26,6.4-9.38,10.32-15.08,4.59-28,15.61-43.5a38.13,38.13,0,0,1,9.3-9A24,24,0,0,1,189.21.07c8.32-.41,14.93,1,20.17,4.27a38.66,38.66,0,0,1,10.22,10.3l0,0a19,19,0,0,1-6.87,10.59A67.7,67.7,0,0,1,201,32.41a106.56,106.56,0,0,0-11.48,6.64,8.89,8.89,0,1,0-4.8,16l.4,0a178.88,178.88,0,0,1,2,28.32C186.9,89.89,186.11,98.32,183.16,101.5Z"/><g id="Head"><path id="Path_948" data-name="Path 948" class="cls-3" d="M174.29,45.93c1-9.07,4.22-13.64,6-15.73,9.05-10.9,27.22-12.71,40.24-6.7,2.26,1,10.06,4.76,14.69,12.76,13.57,23.46-8.49,69.21-28.53,69.56C189.12,106.12,171.37,71.73,174.29,45.93Z"/></g><path id="Hair_Front-2" data-name="Hair Front" class="cls-7" d="M230.46,101.51l46.78,2.27a83.38,83.38,0,0,0,.45-14.65,40.14,40.14,0,0,0-1.87-10.07,37.8,37.8,0,0,0-7.65-12.6s-2.28-2.88-6.42-9.38c-7.65-12-2.27-20.22-10-34.9a61.16,61.16,0,0,0-5.64-8.57,43.29,43.29,0,0,0-9.31-9A24.08,24.08,0,0,0,224.25.09c-8.32-.4-14.93,1-20.17,4.3a38.81,38.81,0,0,0-10.2,10.32l0,0a19,19,0,0,0,6.88,10.58,68.39,68.39,0,0,0,11.8,7.14A106.54,106.54,0,0,1,224,39.07a8.88,8.88,0,1,1,4.83,16l-.41,0a180.24,180.24,0,0,0-1.91,28.33C226.7,89.91,227.51,98.33,230.46,101.51Z"/><path id="Coat_Front-5-2" data-name="Coat Front-5" class="cls-2" d="M355.88,281.72a171.38,171.38,0,0,0-58-121,175,175,0,0,0-61-35q3.5-9,7-18a15.82,15.82,0,0,0-4-1c-12.92-1.47-23.45,13.85-24.9,16,3.28,32.79,7.8,67.19,13.9,103q4.63,27.25,10,53l47,12q-.79-6.68-1.65-13.41-4.51-35.61-10.35-69.59a191.37,191.37,0,0,1,47,74Z"/><path id="Path_932" data-name="Path 932" class="cls-5" d="M349,268.63c-.49,3.76-.7,4.43-.9,6.54a30.53,30.53,0,0,1-1,5,25.06,25.06,0,0,1-2.64,6.94,40.21,40.21,0,0,1-5.62,4.63c-3.21,2.18-4.82,3.27-6.94,3.3-3.06.06-5.48-1.88-7.69-3.64a13.77,13.77,0,0,1-3.55-3.63c-1.26-2-1.7-4.46-.66-12.89.33-2.74.84-6.28,1.64-10.4s18-2.26,23.15-.54S349,268.63,349,268.63Z"/><path id="Path_950" data-name="Path 950" class="cls-5" d="M21.63,268.35C23,271.9,23.35,272.5,24,274.5a29.16,29.16,0,0,0,2.13,4.65,25.23,25.23,0,0,0,4.19,6.13,38.87,38.87,0,0,0,6.55,3.19c3.63,1.37,5.44,2,7.52,1.59,3-.67,4.89-3.12,6.62-5.35a13.76,13.76,0,0,0,2.6-4.35c.75-2.28.6-4.74-2.37-12.69-1-2.58-2.29-5.91-4-9.73s-18,2-22.63,4.89S21.63,268.35,21.63,268.35Z"/><path d="M320.82,110.81c-2.92-1.31-6.24-2.69-9.4-1.32a4.9,4.9,0,0,0-2.81,6.16c.92,2.75,3.59,4.21,6.34,4.52a33.21,33.21,0,0,0,5.81-.33,10.66,10.66,0,0,1,6.23,1.69c3.71,2.17,7.31,4.54,10.95,6.81,3.12,1.94,6.27,3.85,9.26,6a40.74,40.74,0,0,1,8,7.25c2,2.42,3.3,6.15,6.3,7.5,2.14,1,4.86.36,5.56-2.09.66-2.28-.46-4.82-.74-7.08a5.1,5.1,0,0,1,1-4.21c1-1.13,2.53-1.71,3.64-2.77a6.34,6.34,0,0,0,1.18-7,6.75,6.75,0,0,0-5.95-4.09,8.68,8.68,0,0,0-4.11.76c-1.48.67-2.42,2-3.82,2.74-2,1.08-4.58-.88-6.34-1.81l-5.72-3-11.66-6.15c-.79-.42-1.62-.8-2.38-1.29a4,4,0,0,1-1.87-3.14,57.47,57.47,0,0,0-1-5.7c-.78-3.15-1.87-6.75-4.4-9-2-1.73-5.22-2.47-7.46-.74s-2.47,4.93-1.66,7.44a21.71,21.71,0,0,0,2.48,4.81c.25.41.9,0,.65-.38-1.77-2.82-3.9-6.39-2.23-9.76s6.17-2.6,8.38-.16,3.22,6.3,3.87,9.54c.58,2.87.15,6.13,3,7.8,3.07,1.81,6.33,3.35,9.48,5l10.12,5.34c2.35,1.24,5.15,3.3,7.69,1.41a16,16,0,0,1,3.48-2.45,7.74,7.74,0,0,1,4.8-.33,6,6,0,0,1,4.34,6.85c-.55,3.09-3.56,3.58-5.28,5.73-1.27,1.59-1.14,3.65-.8,5.53s1.58,5,.09,6.84c-1.16,1.41-3.2,1.15-4.6.28s-2.41-2.56-3.33-4a32.59,32.59,0,0,0-5.78-6.78c-4.65-4.19-10.16-7.34-15.45-10.64-3.49-2.18-6.93-4.71-10.64-6.51a10.08,10.08,0,0,0-5-1.07,47.74,47.74,0,0,1-5.46.4,7.43,7.43,0,0,1-5.18-2.24,4.64,4.64,0,0,1-.76-5.28c2.31-3.92,7.71-1.89,10.84-.49.44.2.82-.45.38-.65Z"/><path d="M25,150a183.34,183.34,0,0,1-8.84-37.31,7.11,7.11,0,0,1,.37-4.16A4,4,0,0,1,20,106.63c2.5-.12,4.91,1,7.13,2a66.2,66.2,0,0,1,14,8.63,66.48,66.48,0,0,1,12.58,13.42c.16.24.62.26.68-.09a238,238,0,0,1,7.83-31.44c.7-2.16,1.48-4.9,3.84-5.79s4.37.65,5.85,2.19a23,23,0,0,1,3.81,5.94l3.74,7.59,8.36,17c.22.43.86,0,.65-.38l-8.25-16.75-4.08-8.26a21.34,21.34,0,0,0-3.84-5.78,7.35,7.35,0,0,0-4.78-2.52A5.17,5.17,0,0,0,63,95.11a30.33,30.33,0,0,0-2.48,6.81q-1.35,4.36-2.53,8.77-2.6,9.75-4.36,19.69l.68-.09a67.26,67.26,0,0,0-26.42-22.15c-3.35-1.56-10-4.47-12.18.4-1.09,2.5-.08,5.9.32,8.46q.81,5.18,1.89,10.3a196.18,196.18,0,0,0,6.36,22.93c.16.45.88.26.72-.2Z"/><path d="M71,185.06c0,3.07,3,4.81,5.76,4.9,3.68.11,6.26-2.81,7.8-5.85a28,28,0,0,0,1.16-2.63c.31-.8.86-1.68.56-2.52a9.29,9.29,0,0,0-12.75-5,9.48,9.48,0,0,0-4.66,9.85c.09.47.81.27.72-.2a8.69,8.69,0,0,1,3.23-8.27,8,8,0,0,1,8.75-.63,8.78,8.78,0,0,1,3.33,3.07,2.73,2.73,0,0,1,.63,2,22.28,22.28,0,0,1-1,2.5c-1.19,2.75-3.08,6-6.24,6.71-2.7.6-6.6-.77-6.57-4a.38.38,0,0,0-.75,0Z"/><path d="M41.34,172.87l16.33,13.29,8.26,6.72L69.78,196a26.46,26.46,0,0,0,3.58,2.76c2.51,1.38,4.83-.16,7-1.39,2.87-1.61,5.81-3.13,8.61-4.85,2.07-1.27,3.88-2.91,4.28-5.42.49-3-.37-6.25-.74-9.19l-3-23.74c-.06-.47-.81-.48-.75,0l2.46,19.29c.4,3.13.81,6.26,1.2,9.39a13.62,13.62,0,0,1,.07,4.46A6.4,6.4,0,0,1,89.9,191a65.5,65.5,0,0,1-7.3,4.25c-1.29.72-2.57,1.45-3.87,2.16-1.68.93-3.33,1.67-5.16.57a32.1,32.1,0,0,1-3.65-2.86L66.08,192l-7.3-5.94L41.87,172.34c-.38-.31-.91.22-.53.53Z"/><path d="M48.66,157.76a1.5,1.5,0,0,0,0-3,1.5,1.5,0,0,0,0,3Z"/><path d="M76.07,144.07a1.5,1.5,0,0,0,0-3,1.5,1.5,0,0,0,0,3Z"/><path d="M32.44,227.09A35.83,35.83,0,0,1,1,225.21a.38.38,0,0,0-.55.22c-1.55,4.69,1.6,9.43,5.65,11.65,5.44,3,12.16,1.46,17.85.17.47-.11.27-.83-.2-.72-5.29,1.19-11.47,2.65-16.64.23C3,234.84-.4,230.25,1.12,225.63l-.55.22a36.57,36.57,0,0,0,32.25,1.88c.44-.18.06-.83-.38-.64Z"/><path d="M69.27,220.68c3.66,5.21,10,9.44,16.5,9.72,3.32.14,4-3.52,4.37-6.12a21.75,21.75,0,0,0-.76-9.45,21.33,21.33,0,0,0-5.7-9.24c-.35-.33-.89.2-.53.53a20.93,20.93,0,0,1,5.75,20.42,5.55,5.55,0,0,1-1.16,2.52c-1,.93-2.52.57-3.69.35a21.75,21.75,0,0,1-5.22-1.66,22.45,22.45,0,0,1-8.91-7.45c-.28-.39-.93,0-.65.38Z"/><path d="M103.31,185.87a57.71,57.71,0,0,0,7.67,8.34q2,1.8,4.22,3.39c1.44,1.05,3,2.31,4.8,2.65,7.12,1.35,3.45-12.25,2.22-15.26a26.92,26.92,0,0,0-6.61-9.58c-.35-.33-.88.2-.53.53a26.27,26.27,0,0,1,6.63,9.78,26.7,26.7,0,0,1,1.46,5.48,17.37,17.37,0,0,1,.11,5.93c-1.23,5.84-8.5-.67-10.68-2.52a55.67,55.67,0,0,1-8.64-9.12c-.29-.38-.94,0-.65.38Z"/><path d="M31.17,172.83a156.7,156.7,0,0,1,1.43,44.26c-.05.47.7.47.75,0a157.75,157.75,0,0,0-1.45-44.46c-.09-.48-.81-.28-.73.2Z"/></g></g></svg>