<svg xmlns="http://www.w3.org/2000/svg" viewBox="0 0 374.16 208.24"><defs><style>.cls-1{fill:#67c4ba;}.cls-2,.cls-3,.cls-4{fill:none;}.cls-2,.cls-3{stroke:#673e88;stroke-linecap:round;stroke-width:4.61px;}.cls-2{stroke-linejoin:round;}.cls-3,.cls-4{stroke-miterlimit:10;}.cls-4{stroke:#000;}</style></defs><g id="Layer_2" data-name="Layer 2"><g id="Layer_1-2" data-name="Layer 1"><ellipse id="Ellipse_15" data-name="Ellipse 15" class="cls-1" cx="192.14" cy="115.53" rx="69.33" ry="68.88"/><rect id="Rectangle_442" data-name="Rectangle 442" class="cls-2" x="127.55" y="183.89" width="60.75" height="22.04"/><rect id="Rectangle_443" data-name="Rectangle 443" class="cls-2" x="195.57" y="183.89" width="60.75" height="22.04"/><path id="Path_1234" data-name="Path 1234" class="cls-3" d="M182.07,181.93a53.31,53.31,0,0,0-.59-9.94c-.63-4.13-2.12-15-8.76-21.61-4.51-4.53-9.12-5.38-21.61-8.18-21.09-4.72-31.63-7.09-33.89-8.18-7.79-3.77-15.71-12.64-31.54-30.38C76.17,93,69.42,84.32,64.06,86.12,61.3,87,60.15,90.29,60,90.79c-1.83,5.16,1.91,9.93,15.19,28.62,7.67,10.8,8.71,12.44,12.27,17,7.5,9.5,11.25,14.24,15.77,16.94a12.14,12.14,0,0,0,1.94.79c.91.34,10.34,3.35,16.76,6.8,4,2.17,7.22,3.89,9.93,7.6a28.18,28.18,0,0,1,4.09,8.76,31.9,31.9,0,0,1,1.16,6.43"/><path id="Path_1235" data-name="Path 1235" class="cls-3" d="M203,181.93a54.17,54.17,0,0,1,.58-9.94c.64-4.13,2.13-15,8.77-21.61,4.51-4.53,9.11-5.38,21.61-8.18,21.08-4.72,31.63-7.09,33.89-8.18,7.79-3.77,15.71-12.64,31.54-30.38C308.9,93,315.64,84.32,321,86.12c2.76.92,3.92,4.17,4.09,4.67,1.83,5.16-1.91,9.93-15.19,28.62-7.67,10.8-8.71,12.44-12.27,17-7.5,9.5-11.25,14.24-15.77,16.94a12.53,12.53,0,0,1-1.94.79c-.91.34-10.35,3.35-16.76,6.8-4,2.17-7.22,3.89-9.93,7.6a28.18,28.18,0,0,0-4.09,8.76,31.92,31.92,0,0,0-1.17,6.43"/><g id="Group_842" data-name="Group 842"><path id="Path_1236" data-name="Path 1236" class="cls-2" d="M266.1,78.48c-8.07-4.59-21.48-10.67-37.91-10.16-24.62.77-35,15.69-60.25,19-10.45,1.35-26.69,1.13-48.06-8.8V15.53c20.73,12,36.44,12.8,46.7,11.5C191.09,23.94,200.41,6.9,224.8,4.69c17.33-1.56,32.06,5.29,41.3,10.83Z"/><g id="Group_841" data-name="Group 841"><path id="Path_1237" data-name="Path 1237" class="cls-2" d="M206.88,33.86c-1.9-.75-12.59-4.84-17.55,0-1.47,1.44-2,3.24-2.92,8.77-.76,4.59-1.63,10.8-2.2,18.28h23.4"/><path id="Path_1238" data-name="Path 1238" class="cls-3" d="M195.14,47.75h-17"/></g></g><path class="cls-4" d="M.5,133c2.16,17.33,18.7,31.65,36.17,31.31"/><path class="cls-4" d="M373.67,142c-2.17,17.33-18.71,31.65-36.17,31.31"/><path class="cls-4" d="M57,28A28.38,28.38,0,0,1,47,.11"/><path class="cls-4" d="M309.66,39.37c8.52-6.46,11.47-19.25,6.64-28.78"/></g></g></svg>