<svg xmlns="http://www.w3.org/2000/svg" viewBox="0 0 218.06 279.73"><defs><style>.cls-1{fill:#67c4ba;}.cls-2{fill:#673e88;}.cls-3{fill:none;stroke:#000;stroke-miterlimit:10;}</style></defs><g id="Layer_2" data-name="Layer 2"><g id="Layer_1-2" data-name="Layer 1"><ellipse id="Ellipse_15" data-name="Ellipse 15" class="cls-1" cx="113.94" cy="142.67" rx="87.97" ry="87.4"/><path class="cls-2" d="M32.38,82.69a20.76,20.76,0,0,0,0,41.52,21,21,0,0,0,20.76-20.76A20.78,20.78,0,0,0,32.38,82.69Zm0,35.1a14.35,14.35,0,1,1,14.35-14.34A14.36,14.36,0,0,1,32.38,117.79Z"/><path class="cls-2" d="M33.37,129.66A33.41,33.41,0,0,0,0,163v41.78a9.4,9.4,0,0,0,9.39,9.39,3,3,0,0,1,3,3v41.3a21.26,21.26,0,0,0,42.51,0V216.94a3,3,0,0,1,3-3c4.82,0,8.89-4.29,8.89-9.38V163A33.41,33.41,0,0,0,33.37,129.66Zm27,74.92a3,3,0,0,1-3,3A9.4,9.4,0,0,0,48,216.94v41.29a14.84,14.84,0,0,1-29.68,0V216.94a9.4,9.4,0,0,0-9.39-9.39,3,3,0,0,1-3-3V163a27,27,0,1,1,53.91,0v41h.49Z"/><path class="cls-2" d="M183.2,82.69a21,21,0,0,0-20.76,20.76,20.78,20.78,0,0,0,20.76,20.76,20.76,20.76,0,1,0,0-41.52Zm0,35.1a14.35,14.35,0,1,1,14.35-14.34A14.35,14.35,0,0,1,183.2,117.79Z"/><path class="cls-2" d="M184.19,129.66A33.41,33.41,0,0,0,150.82,163v41.78a9.4,9.4,0,0,0,9.39,9.39,3,3,0,0,1,3,3v41.3a21.26,21.26,0,0,0,42.52,0V216.94a3,3,0,0,1,3-3,9.4,9.4,0,0,0,9.39-9.38V163C217.58,144.64,202.38,129.66,184.19,129.66Zm27,74.92a3,3,0,0,1-3,3,9.4,9.4,0,0,0-9.39,9.39v41.29a14.85,14.85,0,0,1-29.69,0V216.94a9.4,9.4,0,0,0-9.39-9.39,3,3,0,0,1-3-3V163a27,27,0,1,1,53.91,0v41h.5Z"/><path class="cls-2" d="M84.65,31.26,81,28.88A37.34,37.34,0,0,1,90.89,18.8l2.47,3.55A33.26,33.26,0,0,0,84.65,31.26Z"/><path class="cls-2" d="M79.29,47.41,75,47.16a37.18,37.18,0,0,1,3.47-13.67l3.93,1.86A32.36,32.36,0,0,0,79.29,47.41Z"/><path class="cls-2" d="M78.82,66A37,37,0,0,1,75,52.44l4.32-.36a32.76,32.76,0,0,0,3.36,12Z"/><path class="cls-2" d="M91.61,80.4a37.05,37.05,0,0,1-10.08-9.85l3.56-2.47A32.78,32.78,0,0,0,94,76.79Z"/><path class="cls-2" d="M109.88,86.48A37,37,0,0,1,96.21,83l1.86-3.92a32.46,32.46,0,0,0,12.07,3.08Z"/><path class="cls-2" d="M115.17,86.43l-.36-4.33a32.56,32.56,0,0,0,12-3.35l1.94,3.87A36.73,36.73,0,0,1,115.17,86.43Z"/><path class="cls-2" d="M133.28,79.92l-2.47-3.56a33,33,0,0,0,8.72-8.91l3.62,2.4A37.67,37.67,0,0,1,133.28,79.92Z"/><path class="cls-2" d="M145.74,65.23l-3.93-1.85a32.51,32.51,0,0,0,3.08-12.06l4.32.25A37.08,37.08,0,0,1,145.74,65.23Z"/><path class="cls-2" d="M144.84,46.64a32.76,32.76,0,0,0-3.36-12l3.88-1.94a37,37,0,0,1,3.8,13.58Z"/><path class="cls-2" d="M139.09,30.63a33.07,33.07,0,0,0-8.9-8.71l2.39-3.62a37.2,37.2,0,0,1,10.08,9.85Z"/><path class="cls-2" d="M126.11,19.63A32.64,32.64,0,0,0,114,16.56l.25-4.33A37.29,37.29,0,0,1,128,15.71Z"/><path class="cls-2" d="M97.37,20l-1.94-3.88A37,37,0,0,1,109,12.29l.36,4.32A32.81,32.81,0,0,0,97.37,20Z"/><path class="cls-2" d="M116.34,19.16H112V12.42a7.4,7.4,0,0,1,2.94-5.91c.35-.26.51-.51.51-.64,0-.39-1.3-1.54-3.77-1.54s-3.77,1.14-3.77,1.54c0,.12.16.38.51.64a7.38,7.38,0,0,1,2.93,5.91v6.74H107V12.42A3,3,0,0,0,105.83,10a5.13,5.13,0,0,1-2.26-4.12c0-3.29,3.56-5.87,8.11-5.87s8.1,2.58,8.1,5.87A5.15,5.15,0,0,1,117.53,10a3,3,0,0,0-1.19,2.43v6.74Z"/><path class="cls-2" d="M112.5,98.71c-4.54,0-8.1-2.58-8.1-5.88a5.16,5.16,0,0,1,2.25-4.12,3,3,0,0,0,1.19-2.42V79.55h4.34v6.74a7.37,7.37,0,0,1-2.94,5.9c-.35.26-.51.51-.51.64,0,.39,1.3,1.54,3.77,1.54s3.77-1.14,3.77-1.54c0-.12-.16-.38-.51-.64a7.35,7.35,0,0,1-2.93-5.9V79.55h4.33v6.74a3,3,0,0,0,1.19,2.42,5.17,5.17,0,0,1,2.26,4.12C120.6,96.13,117,98.71,112.5,98.71Z"/><path class="cls-2" d="M68.62,57.86c-3.3,0-5.88-3.55-5.88-8.1s2.58-8.11,5.88-8.11a5.14,5.14,0,0,1,4.11,2.26,3,3,0,0,0,2.43,1.19H81.9v4.33H75.16a7.39,7.39,0,0,1-5.91-2.93c-.26-.35-.5-.51-.63-.51-.39,0-1.54,1.3-1.54,3.77s1.13,3.77,1.54,3.77c.11,0,.37-.16.63-.51a7.39,7.39,0,0,1,5.91-2.94H81.9v4.34H75.16a3,3,0,0,0-2.43,1.19A5.13,5.13,0,0,1,68.62,57.86Z"/><path class="cls-2" d="M155.56,57.05a5.13,5.13,0,0,1-4.11-2.25A3,3,0,0,0,149,53.61h-6.74V49.27H149a7.37,7.37,0,0,1,5.9,2.94c.26.34.51.51.64.51.39,0,1.54-1.3,1.54-3.77s-1.14-3.77-1.54-3.77c-.12,0-.38.16-.64.5a7.33,7.33,0,0,1-5.9,2.94h-6.74V44.29H149a3,3,0,0,0,2.43-1.2,5.13,5.13,0,0,1,4.11-2.25c3.3,0,5.88,3.56,5.88,8.11S158.86,57.05,155.56,57.05Z"/><path class="cls-2" d="M92.61,25.74l-3.37-5.83A3,3,0,0,0,87,18.4,5.11,5.11,0,0,1,83,16c-1.64-2.85.16-6.86,4.09-9.13A10.23,10.23,0,0,1,92.4,5.37,5.35,5.35,0,0,1,97,7.86a5.12,5.12,0,0,1,.1,4.68,3,3,0,0,0,.19,2.7l3.37,5.83-3.76,2.17-3.37-5.83a7.39,7.39,0,0,1-.41-6.57,1.14,1.14,0,0,0,.12-.81c-.07-.12-.39-.29-1-.31a5.88,5.88,0,0,0-3,.87c-2.15,1.23-2.7,2.87-2.5,3.2a1.13,1.13,0,0,0,.76.3A7.37,7.37,0,0,1,93,17.73l3.37,5.83Z"/><path class="cls-2" d="M132.05,93.34h-.27a5.32,5.32,0,0,1-4.62-2.48,5.15,5.15,0,0,1-.11-4.68,3,3,0,0,0-.18-2.7l-3.36-5.84,3.75-2.17,3.37,5.83a7.42,7.42,0,0,1,.41,6.58,1.12,1.12,0,0,0-.12.8c.07.12.39.29,1,.32a6,6,0,0,0,3-.87c2.15-1.24,2.7-2.87,2.5-3.21a1.09,1.09,0,0,0-.76-.29,7.4,7.4,0,0,1-5.5-3.64l-3.37-5.84L131.57,73l3.37,5.83a3.06,3.06,0,0,0,2.25,1.51,5.09,5.09,0,0,1,4,2.43c1.65,2.85-.15,6.86-4.08,9.14A10.32,10.32,0,0,1,132.05,93.34Z"/><path class="cls-2" d="M76.37,79.07c-2.43,0-5.11-1.74-6.81-4.69a10.12,10.12,0,0,1-1.45-5.33,5.32,5.32,0,0,1,2.48-4.62,5.15,5.15,0,0,1,4.68-.11,3,3,0,0,0,2.7-.18l5.83-3.37L86,64.52l-5.83,3.37a7.39,7.39,0,0,1-6.57.41,1.14,1.14,0,0,0-.81-.12c-.11.07-.29.39-.31,1a5.91,5.91,0,0,0,.87,3c1.23,2.15,2.87,2.7,3.2,2.49a1.07,1.07,0,0,0,.3-.75,7.37,7.37,0,0,1,3.64-5.5l5.83-3.37,2.17,3.75L82.62,72.2a3,3,0,0,0-1.51,2.24,5.11,5.11,0,0,1-2.44,4A4.3,4.3,0,0,1,76.37,79.07Z"/><path class="cls-2" d="M140.37,37.94l-2.17-3.75L144,30.82a7.42,7.42,0,0,1,6.58-.41,1.12,1.12,0,0,0,.8.12c.12-.07.3-.4.32-1a5.94,5.94,0,0,0-.87-3c-1.23-2.14-2.87-2.69-3.21-2.49a1.09,1.09,0,0,0-.29.76,7.35,7.35,0,0,1-3.64,5.49l-5.84,3.37-2.17-3.75,5.83-3.37a3,3,0,0,0,1.51-2.24,5.08,5.08,0,0,1,2.44-4c2.85-1.64,6.86.15,9.13,4.09a10.12,10.12,0,0,1,1.45,5.33,5.32,5.32,0,0,1-2.48,4.62,5.12,5.12,0,0,1-4.68.1,3,3,0,0,0-2.7.19Z"/><path class="cls-2" d="M83.41,38.64l-5.84-3.37a3,3,0,0,0-2.7-.18A5.14,5.14,0,0,1,70.18,35a5.35,5.35,0,0,1-2.49-4.62A10.2,10.2,0,0,1,69.15,25c2.27-3.93,6.28-5.73,9.13-4.08a5.13,5.13,0,0,1,2.44,4,3,3,0,0,0,1.51,2.24l5.83,3.37-2.17,3.75L80.06,31a7.34,7.34,0,0,1-3.64-5.5c-.06-.43-.19-.7-.3-.75-.33-.2-2,.35-3.2,2.49a5.88,5.88,0,0,0-.87,3c0,.62.2.94.31,1a1.17,1.17,0,0,0,.82-.12,7.33,7.33,0,0,1,6.57.41l5.83,3.37Z"/><path class="cls-2" d="M148.22,78.37a4.6,4.6,0,0,1-2.32-.61,5.13,5.13,0,0,1-2.44-4A3,3,0,0,0,142,71.51l-5.83-3.37,2.17-3.75,5.83,3.37a7.34,7.34,0,0,1,3.64,5.49,1.19,1.19,0,0,0,.29.76c.34.2,2-.36,3.21-2.49a5.91,5.91,0,0,0,.87-3c0-.61-.2-.94-.32-1s-.4-.06-.81.12a7.35,7.35,0,0,1-6.58-.42l-5.83-3.37,2.17-3.75,5.83,3.37a3,3,0,0,0,2.7.19,5.11,5.11,0,0,1,4.69.11,5.29,5.29,0,0,1,2.48,4.61A10.07,10.07,0,0,1,155,73.68C153.32,76.62,150.64,78.37,148.22,78.37Z"/><path class="cls-2" d="M92.83,93.75a10.41,10.41,0,0,1-5.07-1.45C83.83,90,82,86,83.68,83.17a5.16,5.16,0,0,1,4-2.44,3,3,0,0,0,2.24-1.51l3.37-5.83,3.75,2.17-3.37,5.83A7.37,7.37,0,0,1,88.19,85c-.44,0-.71.18-.76.29-.2.34.35,2,2.49,3.21a5.88,5.88,0,0,0,3,.87c.62,0,.94-.2,1-.32a1.15,1.15,0,0,0-.12-.81,7.35,7.35,0,0,1,.41-6.58l3.37-5.83L101.36,78,98,83.88a3.06,3.06,0,0,0-.18,2.7,5.14,5.14,0,0,1-.11,4.69,5.32,5.32,0,0,1-4.62,2.48A2.24,2.24,0,0,0,92.83,93.75Z"/><path class="cls-2" d="M130.87,25.32l-3.75-2.16,3.37-5.83A7.34,7.34,0,0,1,136,13.69c.44-.06.71-.19.76-.3.2-.33-.36-2-2.49-3.2a5.88,5.88,0,0,0-3-.87c-.62,0-.95.19-1,.31s-.06.4.12.82a7.33,7.33,0,0,1-.41,6.57l-3.37,5.83-3.75-2.16,3.37-5.83a3.07,3.07,0,0,0,.18-2.7,5.14,5.14,0,0,1,.11-4.69A5.35,5.35,0,0,1,131.08,5a10.14,10.14,0,0,1,5.34,1.46c3.93,2.27,5.73,6.28,4.08,9.13a5.13,5.13,0,0,1-4,2.44,3,3,0,0,0-2.24,1.51Z"/><path class="cls-2" d="M117.21,42.92a7,7,0,1,1,7-7A7,7,0,0,1,117.21,42.92Zm0-9.62a2.65,2.65,0,1,0,2.64,2.64A2.65,2.65,0,0,0,117.21,33.3Z"/><path class="cls-2" d="M94.52,54.35a7,7,0,1,1,7-7A7,7,0,0,1,94.52,54.35Zm0-9.62a2.65,2.65,0,1,0,2.65,2.65A2.65,2.65,0,0,0,94.52,44.73Z"/><path class="cls-2" d="M105.2,72.85a7,7,0,1,1,7-7A7,7,0,0,1,105.2,72.85Zm0-9.63a2.65,2.65,0,1,0,2.64,2.64A2.65,2.65,0,0,0,105.2,63.22Z"/><path class="cls-2" d="M127.27,67.16a7,7,0,1,1,7-7A7,7,0,0,1,127.27,67.16Zm0-9.63a2.65,2.65,0,1,0,2.64,2.64A2.64,2.64,0,0,0,127.27,57.53Z"/><path class="cls-3" d="M66.87,275.32H79.26"/><path class="cls-3" d="M140.87,275.32h12.39"/><path class="cls-3" d="M118.87,275.32h12.39"/><path class="cls-3" d="M93.2,275.32h16.26"/></g></g></svg>