<svg xmlns="http://www.w3.org/2000/svg" viewBox="0 0 326.96 241.91"><defs><style>.cls-1{fill:#e03088;}.cls-2,.cls-3,.cls-4{fill:none;}.cls-2,.cls-3{stroke:#673e88;stroke-linecap:round;stroke-width:4.61px;}.cls-2{stroke-linejoin:round;}.cls-3,.cls-4{stroke-miterlimit:10;}.cls-4{stroke:#000;}</style></defs><g id="Layer_2" data-name="Layer 2"><g id="Layer_1-2" data-name="Layer 1"><ellipse id="Ellipse_15" data-name="Ellipse 15" class="cls-1" cx="156.48" cy="132.07" rx="87.97" ry="87.4"/><g id="Group_842" data-name="Group 842"><path id="Path_1236" data-name="Path 1236" class="cls-2" d="M324.66,161.46c-8.07-4.59-21.48-10.67-37.91-10.16-24.61.77-35,15.69-60.25,19-10.44,1.35-26.69,1.13-48.06-8.8v-63c20.73,12,36.44,12.81,46.71,11.51,24.5-3.09,33.83-20.14,58.22-22.34,17.32-1.56,32.05,5.29,41.29,10.83Z"/><g id="Group_841" data-name="Group 841"><path id="Path_1237" data-name="Path 1237" class="cls-2" d="M265.44,116.84c-1.89-.75-12.59-4.84-17.55,0-1.47,1.44-2,3.24-2.92,8.77-.76,4.59-1.63,10.79-2.19,18.28h23.39"/><path id="Path_1238" data-name="Path 1238" class="cls-3" d="M253.71,130.73h-17"/></g></g><path id="Icon_open-document" data-name="Icon open-document" class="cls-2" d="M2.3,2.3V166.64H146.1V84.47H63.93V2.3Zm82.17,0V63.93H146.1ZM22.85,43.39H43.39V63.93H22.85Zm0,41.08H43.39V105H22.85Zm0,41.09H105V146.1H22.85Z"/><path class="cls-4" d="M234.74,226.76c3.25-8,14.64-9.18,22.41-5.44s13.49,10.68,20.66,15.47,17.64,7,23.89,1"/><path class="cls-4" d="M14.74,226.76c3.25-8,14.64-9.18,22.41-5.44S50.64,232,57.81,236.79s17.64,7,23.89,1"/><path class="cls-4" d="M179.64,18.14c1.94-8.41,13-11.38,21.26-8.91s15,8.42,22.84,12,18.53,4.09,23.76-2.76"/></g></g></svg>