<svg xmlns="http://www.w3.org/2000/svg" viewBox="0 0 407.46 197.13"><defs><style>.cls-1{fill:#a4cc5a;}.cls-2,.cls-3,.cls-4{fill:none;stroke:#673e88;stroke-linejoin:round;}.cls-2,.cls-3{stroke-width:4.77px;}.cls-3,.cls-4{stroke-linecap:round;}.cls-4{stroke-width:4.71px;}</style></defs><g id="Layer_2" data-name="Layer 2"><g id="Layer_1-2" data-name="Layer 1"><ellipse id="Ellipse_15" data-name="Ellipse 15" class="cls-1" cx="217.68" cy="106.89" rx="90.83" ry="90.24"/><path class="cls-2" d="M68,177.61A81.81,81.81,0,0,1,57.48,177c-21.41-2.78-38.37-4.91-46.26-16.52-2.9-4.28-4.08-11.86-6.42-27-1.07-6.9-1.61-12.66-1.9-16.63A19.63,19.63,0,0,1,7.12,99.57a11.7,11.7,0,0,1,2.27-2.63L60.47,53.23A11.9,11.9,0,1,1,76,71.3L62.58,82.73l83.79-19.47a12.8,12.8,0,0,1,1.72-.27,11.89,11.89,0,0,1,3.66,23.44,12.8,12.8,0,0,1,1.72-.27,11.89,11.89,0,0,1,3.67,23.44l-6.35,1.48a10.25,10.25,0,0,1,1.72-.27,11.89,11.89,0,0,1,3.66,23.44l-11.55,2.68a13.2,13.2,0,0,1,1.73-.27A11.89,11.89,0,0,1,150,160.1l-64.37,15a66.62,66.62,0,0,1-8.12,1.76A70.19,70.19,0,0,1,68,177.61Z"/><path class="cls-2" d="M94.93,148.45l52.87-12.16"/><path class="cls-2" d="M99.41,122.93l52.87-12.15"/><path class="cls-2" d="M99.77,98.36l52.87-12.15"/><g id="Group_842" data-name="Group 842"><path class="cls-3" d="M165.25,124.37c1.8-.13,3.5-.31,5.1-.51,30.09-3.9,43.91-20.54,70.69-24"/><path class="cls-3" d="M108,72.19V30.72c26.91,15.58,47.3,16.62,60.62,14.94a72.71,72.71,0,0,0,18.16-4.72"/><path class="cls-3" d="M212.73,27.11c9-5,18.62-9.3,31.43-10.45,22.49-2,41.6,6.86,53.59,14.06V74.54"/><g id="Group_841" data-name="Group 841"><path class="cls-3" d="M221.84,89.63H191.47c.5-6.47,1.16-12.21,1.84-17.08.34-2.44.69-4.65,1-6.64.12-.73.24-1.41.35-2"/><path class="cls-3" d="M220.89,54.52a45.21,45.21,0,0,0-11.11-2.87"/><polyline class="cls-3" points="183.65 72.55 193.31 72.55 197.67 72.55"/></g></g><path class="cls-4" d="M187.39,40.83,207,94.34Q209.11,61,211.25,27.7"/><path class="cls-3" d="M157.07,23.07l11.26,5.36"/><path class="cls-3" d="M184.75,17.17l-8.4-14.33"/><path class="cls-3" d="M203.38,14.07l4.35-11.68"/><path class="cls-2" d="M339.45,180.88a82.84,82.84,0,0,0,10.53-.62c21.41-2.79,38.38-4.91,46.26-16.53,2.9-4.28,4.08-11.86,6.42-27,1.07-6.9,1.61-12.66,1.9-16.63a19.66,19.66,0,0,0-4.22-17.26,11.44,11.44,0,0,0-2.27-2.62L347,56.5a11.89,11.89,0,1,0-15.47,18.07L344.88,86,261.09,66.53a12.8,12.8,0,0,0-1.72-.27,11.89,11.89,0,0,0-3.66,23.44,11.35,11.35,0,0,0-1.72-.26,11.89,11.89,0,0,0-3.67,23.43l6.35,1.48a12.8,12.8,0,0,0-1.72-.27,11.89,11.89,0,0,0-3.66,23.44l11.55,2.69a10.52,10.52,0,0,0-1.73-.27,11.89,11.89,0,0,0-3.66,23.44l64.37,15a67.86,67.86,0,0,0,17.63,2.54Z"/><path class="cls-2" d="M312.53,151.72l-52.87-12.15"/><path class="cls-2" d="M308.05,126.21l-52.87-12.16"/><path class="cls-2" d="M307.69,101.63,254.82,89.48"/></g></g></svg>