<?xml version="1.0" encoding="UTF-8" standalone="no"?>
<!DOCTYPE svg PUBLIC "-//W3C//DTD SVG 1.1//EN" "http://www.w3.org/Graphics/SVG/1.1/DTD/svg11.dtd">
<svg width="100%" height="100%" viewBox="0 0 60 60" version="1.1" xmlns="http://www.w3.org/2000/svg" xmlns:xlink="http://www.w3.org/1999/xlink" xml:space="preserve" xmlns:serif="http://www.serif.com/" style="fill-rule:evenodd;clip-rule:evenodd;stroke-linejoin:round;stroke-miterlimit:2;">
    <g transform="matrix(1.85613,0,0,1.85613,-29.7877,-36.5094)">
        <circle cx="32.211" cy="35.832" r="16.163" style="fill:rgb(234,94,74);"/>
    </g>
    <g transform="matrix(58.3333,0,0,58.3333,20.2873,50.538)">
        <path d="M0.211,-0.205L0.121,-0.205L0.076,-0.74L0.256,-0.74L0.211,-0.205ZM0.166,0.014C0.144,0.014 0.124,0.006 0.109,-0.009C0.093,-0.025 0.085,-0.044 0.085,-0.067C0.085,-0.089 0.093,-0.108 0.108,-0.124C0.124,-0.14 0.143,-0.148 0.166,-0.148C0.188,-0.148 0.208,-0.14 0.223,-0.125C0.239,-0.109 0.247,-0.09 0.247,-0.067C0.247,-0.044 0.239,-0.025 0.224,-0.01C0.208,0.006 0.189,0.014 0.166,0.014Z" style="fill:rgb(250,250,250);fill-rule:nonzero;"/>
    </g>
</svg>
