<svg xmlns="http://www.w3.org/2000/svg" viewBox="0 0 239.37 233.56"><defs><style>.cls-1{fill:#a4cc5a;}.cls-2,.cls-4{fill:none;}.cls-2{stroke:#673e88;stroke-linecap:round;stroke-linejoin:round;stroke-width:4.61px;}.cls-3{fill:#673e88;}.cls-4{stroke:#000;stroke-miterlimit:10;}</style></defs><g id="Layer_2" data-name="Layer 2"><g id="Layer_1-2" data-name="Layer 1"><ellipse id="Ellipse_15" data-name="Ellipse 15" class="cls-1" cx="127.18" cy="145.42" rx="87.97" ry="87.4"/><polygon class="cls-2" points="33.56 137.41 22.41 148.26 2.3 127.6 2.3 107.94 3.65 106.64 33.56 137.41"/><path id="Path_1235" data-name="Path 1235" class="cls-2" d="M8.3,109.44a38.18,38.18,0,0,1,5.32-4.6c2.4-1.71,8.62-6.28,15.26-6.2,4.52,0,7.22,2,14.79,6.91,12.78,8.36,19.16,12.53,20.83,13.14,5.75,2.09,14.14,1.73,30.92,1,10.08-.43,17.79-1.28,19.52,2.32.89,1.85-.18,4-.35,4.37-1.71,3.48-6,3.92-22,6.41C83.37,134.23,82,134.51,78,134.93c-8.5.88-12.76,1.32-16.35.35a8.12,8.12,0,0,1-1.35-.59,87.89,87.89,0,0,0-11.7-5.13c-3.09-1-5.53-1.75-8.74-1.29a19.73,19.73,0,0,0-6.45,2.24,22.49,22.49,0,0,0-3.83,2.57"/><path class="cls-2" d="M152.3,155.72V48.25a6,6,0,0,0-6-6H8.3a6,6,0,0,0-6,6v177a6,6,0,0,0,6,6h138"/><circle class="cls-2" cx="146.3" cy="193.25" r="38"/><circle class="cls-3" cx="147.3" cy="173.25" r="3"/><line class="cls-2" x1="147.3" y1="188.25" x2="147.3" y2="214.25"/><path class="cls-4" d="M90,15.93V0"/><path class="cls-4" d="M202.27,44.57a50,50,0,0,1,15.4-12.38"/><path class="cls-4" d="M153.87,19.91a58.21,58.21,0,0,1,.59-16"/><path class="cls-4" d="M227.53,98.88a29.94,29.94,0,0,0,11.53-5.71"/><path class="cls-4" d="M44.16,19.94A82.76,82.76,0,0,0,35.48,2.85"/></g></g></svg>