<svg xmlns="http://www.w3.org/2000/svg" viewBox="0 0 47.35 30.42"><defs><style>.cls-1{fill:#6c448c;}</style></defs><g id="Layer_2" data-name="Layer 2"><g id="Layer_1-2" data-name="Layer 1"><path id="Icon_ionic-md-people" data-name="Icon ionic-md-people" class="cls-1" d="M32.28,12.66a6.42,6.42,0,0,0,6.46-6.34,6.46,6.46,0,0,0-12.91,0A6.41,6.41,0,0,0,32.28,12.66Zm-17.21,0a6.41,6.41,0,0,0,6.45-6.34,6.46,6.46,0,0,0-12.91,0,6.42,6.42,0,0,0,6.46,6.34Zm0,4.65C10,17.31,0,19.74,0,24.71v5.71H30.44V24.71c0-5-10.32-7.4-15.37-7.4Zm17.21,1.16a11.36,11.36,0,0,0-1.84.11c2.48,1.8,3.38,3,3.38,6.13v5.7H47.35v-5.7C47.35,19.74,37.34,18.47,32.28,18.47Z"/></g></g></svg>