<svg xmlns="http://www.w3.org/2000/svg" viewBox="0 0 40.5 31.5"><defs><style>.cls-1{fill:#fff;}</style></defs><g id="Layer_2" data-name="Layer 2"><g id="Layer_1-2" data-name="Layer 1"><path id="Icon_awesome-home" data-name="Icon awesome-home" class="cls-1" d="M19.72,8.17l-13,10.68V30.37A1.13,1.13,0,0,0,7.88,31.5l7.88,0a1.13,1.13,0,0,0,1.12-1.13h0V23.62A1.12,1.12,0,0,1,18,22.5h4.5a1.13,1.13,0,0,1,1.13,1.12v6.73a1.13,1.13,0,0,0,1.12,1.13h0l7.88,0a1.12,1.12,0,0,0,1.12-1.13V18.84l-13-10.67A.86.86,0,0,0,19.72,8.17Zm20.47,7.26-5.88-4.85V.85A.84.84,0,0,0,33.47,0H29.53a.85.85,0,0,0-.84.85V6L22.39.77a3.36,3.36,0,0,0-4.29,0L.31,15.43a.85.85,0,0,0-.12,1.19h0L2,18.8a.84.84,0,0,0,1.19.11h0L19.72,5.29a.86.86,0,0,1,1.07,0L37.33,18.91a.84.84,0,0,0,1.19-.11l1.79-2.18a.84.84,0,0,0-.12-1.19Z"/></g></g></svg>