<svg xmlns="http://www.w3.org/2000/svg" viewBox="0 0 255.71 218.74"><defs><style>.cls-1{fill:#ff4133;}.cls-2,.cls-3,.cls-4,.cls-5,.cls-6{fill:none;}.cls-2,.cls-6{stroke:#673e88;stroke-linecap:round;stroke-linejoin:round;}.cls-2{stroke-width:5.07px;}.cls-3,.cls-4,.cls-5{stroke:#000;stroke-miterlimit:10;}.cls-3{stroke-width:1.07px;}.cls-4{stroke-width:0.9px;}.cls-5{stroke-width:0.72px;}.cls-6{stroke-width:5.34px;}</style></defs><g id="Layer_2" data-name="Layer 2"><g id="Layer_1-2" data-name="Layer 1"><ellipse id="Ellipse_15" data-name="Ellipse 15" class="cls-1" cx="123.56" cy="103.57" rx="87.97" ry="87.4"/><g id="Icon_feather-home" data-name="Icon feather-home"><path id="Path_1266" data-name="Path 1266" class="cls-2" d="M102.66,107.5,177.92,49l75.26,58.53v92a16.73,16.73,0,0,1-16.73,16.72H119.38a16.72,16.72,0,0,1-16.72-16.72Z"/><path id="Path_1267" data-name="Path 1267" class="cls-2" d="M152.83,216.21V132.59H203v83.62"/></g><path class="cls-3" d="M.2,178.45c15.5,6.17,35.28-5.16,37.81-21.65,4.34,15.37,20.61,26.41,36.51,24.77"/><path class="cls-4" d="M6.07,149.24c13.05,5.2,29.71-4.35,31.83-18.23,3.66,13,17.36,22.24,30.74,20.86"/><path class="cls-5" d="M12.44,121c10.39,4.14,23.66-3.46,25.35-14.52,2.92,10.31,13.83,17.72,24.49,16.61"/><path class="cls-3" d="M37.84,156.71V206.5"/><path class="cls-6" d="M116.68,69.72c-16.31-10.39-22.19-31-14.47-47.11C111.62,3,137.49-2.18,153.5,7.24,164.29,13.59,168,25,169.09,29"/></g></g></svg>