<svg xmlns="http://www.w3.org/2000/svg" viewBox="0 0 254.07 239.48"><defs><style>.cls-1{fill:#ff4133;}.cls-2{fill:#673e88;}.cls-3{fill:none;stroke:#000;stroke-miterlimit:10;}</style></defs><g id="Layer_2" data-name="Layer 2"><g id="Layer_1-2" data-name="Layer 1"><ellipse id="Ellipse_15" data-name="Ellipse 15" class="cls-1" cx="132.58" cy="135.91" rx="87.97" ry="87.4"/><path class="cls-2" d="M242.85,155.42a3.85,3.85,0,0,1-3,.33,4.1,4.1,0,0,1-2.4-1.92q-5.16-9.5-10.38-19c-4.85-8.9-9.7-17.78-14.41-26.5L210,103.44c-.12-.16-.24-.36-.35-.54a3.73,3.73,0,0,0-.44-.63h0l-.35.36-.36.35a.44.44,0,0,1-.12-.35,6,6,0,0,1-.31.66l-22.27,41c-2,3.52-3.73,6.69-5.28,9.89a3.91,3.91,0,0,1-3.58,2.24,4.65,4.65,0,0,1-1.77-.42,3.83,3.83,0,0,1-2-2.23,3.94,3.94,0,0,1,.2-3.1c1.46-2.92,3-5.72,4.46-8.44l23-42.52.1-.18c1-1.73,3.09-5.3,7.92-5.3H209c5,.08,7,3.7,8,5.46l2.63,4.79c4.22,7.71,8.49,15.57,12.77,23.45,4,7.38,8,14.78,12,22.09A4,4,0,0,1,242.85,155.42Z"/><path class="cls-2" d="M253.1,166.55a4,4,0,0,0-2.71-1.37l-1.5-.1h-.81a2.91,2.91,0,0,1-.46-.05,1.92,1.92,0,0,0-.3,0,22.38,22.38,0,0,0-2.44-.09h-72.1c-.39,0-.75,0-1.14,0s-1,.05-1.59.05h-1.22l-1.47.09a3.92,3.92,0,0,0-2.74,1.41,4.16,4.16,0,0,0-.92,2.94l.09,1.41c.65,10,5,18.08,13.15,24.71a53.2,53.2,0,0,0,64,0c8.13-6.65,12.4-14.71,13.05-24.62l.09-1.5A3.91,3.91,0,0,0,253.1,166.55Zm-7.44,6.85c-1.15,6.3-4.25,11.34-9.75,15.89h0c-7.18,5.76-16.76,8.94-27,8.94s-19.79-3.18-27-8.94c-5.61-4.54-8.71-9.59-9.76-15.89l-.1-.59h73.67Z"/><path class="cls-2" d="M103.39,10.73a26.87,26.87,0,1,0,26.82,26.92A26.94,26.94,0,0,0,103.39,10.73Zm0,45.63A18.81,18.81,0,1,1,122.2,37.55,18.83,18.83,0,0,1,103.39,56.36Z"/><path class="cls-2" d="M212.21,82.19a3.87,3.87,0,0,1-2.54,1.72l-41.75,8.56a2.76,2.76,0,0,1-1.61,0L119.84,82.22H119l-.15.18c-1.56,1.81-3.12,3.59-4.69,5.39-1.36,1.56-2.74,3.13-4.13,4.74l-3.75,4.22a4,4,0,0,1-6,0l-3.2-3.66q-1.45-1.68-2.91-3.33c-2.26-2.57-4.38-5-6.47-7.46L87.51,82l-5.4,1.71c-5.48,1.74-10.66,3.39-15.9,4.94h-.5V90l3.57,63.85c.49,6.6.61,6.76,6.64,8.61A4,4,0,0,1,78.76,166l3.95,60.28a5.72,5.72,0,0,0,5.66,5.35h30.05a5.73,5.73,0,0,0,5.66-5.35L128,166.12a1.19,1.19,0,0,0,.11-.56l4.22-62a4,4,0,0,1,4.25-3.76h0a3.8,3.8,0,0,1,2.68,1.26,3.94,3.94,0,0,1,1.07,2.81L136,166.24a1.27,1.27,0,0,0-.1.56L132,226.61a13.74,13.74,0,0,1-13.68,12.87H88.37a13.76,13.76,0,0,1-13.68-12.87l-3.77-57.5-.31-.12c-7-2.57-8.69-5.2-9.34-14.78l-.1-1-3.47-63V89.1a8.27,8.27,0,0,1,6.12-8.26c7.82-2.36,15.5-4.8,21.33-6.67a8.39,8.39,0,0,1,2.61-.43,7.62,7.62,0,0,1,5.86,2.91c3.08,3.66,6.16,7.2,9.4,10.81l.35.39.78-.77,2.62-3c2.22-2.53,4.31-4.92,6.39-7.41,2.67-3.14,7.5-2.65,7.6-2.64l.16,0a1.15,1.15,0,0,0,.34.06L167,84.42l.11,0L208,76.06a3.86,3.86,0,0,1,3,.55,4.07,4.07,0,0,1,1.18,5.58Z"/><path class="cls-3" d="M236.07,7.39,222.66,1.81C220.46.9,218,0,215.78.85c-2,.77-3.14,2.73-4.06,4.62a49.16,49.16,0,0,0-4.82,17.82c-.29,3.95-.16,8.11-2,11.59s-6.8,5.72-9.89,3.24c-1.28-2.35.92-5.38,3.54-6s5.29.46,7.76,1.49L223,40.57"/><path class="cls-3" d="M193.65,15.46,217.84,23"/><path class="cls-3" d="M28.19,22.23,14.24,26.28c-2.28.67-4.78,1.5-6,3.56-1,1.83-.74,4.1-.27,6.14a49,49,0,0,0,7.41,16.91c2.24,3.26,5,6.43,5.67,10.32s-1.72,8.71-5.68,8.72c-2.47-1-2.65-4.77-1-6.87s4.41-3,7-3.7L38.77,56.3"/><path class="cls-3" d="M.18,55.09l23.6-9.26"/></g></g></svg>