<svg xmlns="http://www.w3.org/2000/svg" viewBox="0 0 39.12 39.12"><defs><style>.cls-1{fill:#6c448c;}</style></defs><g id="Layer_2" data-name="Layer 2"><g id="Layer_1-2" data-name="Layer 1"><path id="Icon_awesome-phone" data-name="Icon awesome-phone" class="cls-1" d="M37.7,1.88l-8-1.83a1.85,1.85,0,0,0-2.1,1.06L24,9.66a1.83,1.83,0,0,0,.53,2.14l4.63,3.79A28.27,28.27,0,0,1,15.6,29.13L11.81,24.5A1.84,1.84,0,0,0,9.67,24L1.12,27.64A1.85,1.85,0,0,0,.05,29.75l1.83,8a1.83,1.83,0,0,0,1.79,1.42A35.45,35.45,0,0,0,39.12,3.68h0A1.83,1.83,0,0,0,37.7,1.88Z"/></g></g></svg>