<svg xmlns="http://www.w3.org/2000/svg" viewBox="0 0 289.82 240.24"><defs><style>.cls-1{fill:#e03088;}.cls-2,.cls-3,.cls-4{fill:none;stroke-linecap:round;}.cls-2,.cls-3{stroke:#673e88;stroke-width:4.6px;}.cls-2{stroke-linejoin:round;}.cls-3,.cls-4{stroke-miterlimit:10;}.cls-4{stroke:#000;stroke-width:1px;}</style></defs><g id="Layer_2" data-name="Layer 2"><g id="Layer_1-2" data-name="Layer 1"><ellipse id="Ellipse_15" data-name="Ellipse 15" class="cls-1" cx="143.47" cy="121.03" rx="82.41" ry="81.88"/><g id="Group_842" data-name="Group 842"><path id="Path_1236" data-name="Path 1236" class="cls-2" d="M125.6,173.39c-6.44-2.73-17-6.12-29.3-4.3-18.38,2.73-24.85,14.82-43.5,19.47-7.71,1.93-19.9,3.18-36.79-2.4L10.51,139c16.59,7.18,28.43,6.41,36,4.54,18.09-4.45,23.59-18.05,41.68-21.83,12.85-2.68,24.49,1.16,31.9,4.51Z"/><g id="Group_841" data-name="Group 841"><path id="Path_1237" data-name="Path 1237" class="cls-2" d="M77.32,145.12c-1.48-.4-9.86-2.53-13.15,1.53-1,1.21-1.22,2.61-1.43,6.83-.16,3.51-.27,8.24,0,13.9l17.53-2"/><path id="Path_1238" data-name="Path 1238" class="cls-3" d="M69.74,156.56,57,158"/></g></g><g id="Group_842-2" data-name="Group 842"><path id="Path_1236-2" data-name="Path 1236" class="cls-2" d="M117.39,102.94c-6.44-2.74-17-6.13-29.3-4.3-18.38,2.72-24.85,14.81-43.5,19.47-7.71,1.92-19.9,3.17-36.79-2.4L2.3,68.52c16.59,7.19,28.43,6.42,36,4.55C56.41,68.61,61.91,55,80,51.24c12.85-2.69,24.48,1.16,31.89,4.51Z"/><g id="Group_841-2" data-name="Group 841"><path id="Path_1237-2" data-name="Path 1237" class="cls-2" d="M69.11,74.67c-1.48-.4-9.86-2.53-13.15,1.53-1,1.21-1.22,2.6-1.43,6.83-.17,3.51-.27,8.23,0,13.89l17.53-2"/><path id="Path_1238-2" data-name="Path 1238" class="cls-3" d="M61.53,86.1,48.82,87.58"/></g></g><g id="Group_842-3" data-name="Group 842"><path id="Path_1236-3" data-name="Path 1236" class="cls-2" d="M277.8,181.71c-5.62-3.85-15.07-9.14-27.14-9.78-18.08-1-26.6,9.32-45.31,10.15-7.73.34-19.62-.83-34.66-9.42l3.9-46.12c14.45,10.08,25.9,11.64,33.5,11.33,18.14-.75,26-12.66,44-12.76,12.79-.08,23.15,5.85,29.58,10.49Z"/><g id="Group_841-3" data-name="Group 841"><path id="Path_1237-3" data-name="Path 1237" class="cls-2" d="M237.19,145.36c-1.35-.66-8.93-4.32-12.86-1.08-1.17,1-1.67,2.25-2.68,6.24-.85,3.32-1.86,7.81-2.74,13.25l17.14,1.45"/><path id="Path_1238-3" data-name="Path 1238" class="cls-3" d="M227.73,154.81l-12.42-1.05"/></g></g><g id="Group_842-4" data-name="Group 842"><path id="Path_1236-4" data-name="Path 1236" class="cls-2" d="M283.62,112.86c-5.62-3.86-15.07-9.15-27.14-9.79-18.08-1-26.6,9.33-45.3,10.15-7.74.35-19.62-.82-34.67-9.42l3.9-46.11C194.86,67.76,206.32,69.32,213.92,69c18.14-.75,26-12.66,44-12.76,12.78-.07,23.15,5.86,29.57,10.49Z"/><g id="Group_841-4" data-name="Group 841"><path id="Path_1237-4" data-name="Path 1237" class="cls-2" d="M243,76.51c-1.34-.67-8.92-4.33-12.86-1.09-1.16,1-1.67,2.25-2.68,6.24-.84,3.32-1.86,7.81-2.74,13.26l17.14,1.45"/><path id="Path_1238-4" data-name="Path 1238" class="cls-3" d="M233.55,86,221.13,84.9"/></g></g><line class="cls-3" x1="145.89" y1="228.09" x2="145.89" y2="13.34"/><path class="cls-4" d="M113.87,20.07A72.05,72.05,0,0,0,89.47.5"/><path class="cls-4" d="M76.84,217.34a244.14,244.14,0,0,0-18.58,22.4"/><path class="cls-4" d="M217.1,216.27a60.83,60.83,0,0,0,16.1,17.2"/></g></g></svg>