<svg xmlns="http://www.w3.org/2000/svg" viewBox="0 0 52.33 41.86"><defs><style>.cls-1{fill:#6c448c;}</style></defs><g id="Layer_2" data-name="Layer 2"><g id="Layer_1-2" data-name="Layer 1"><path id="Icon_awesome-hands-helping" data-name="Icon awesome-hands-helping" class="cls-1" d="M39.9,15.7H27.48v4.58a5.89,5.89,0,0,1-11.78,0v-10l-5.3,3.19A5.21,5.21,0,0,0,7.85,18v3.87L1.31,25.65a2.6,2.6,0,0,0-1,3.56h0L6.9,40.55a2.62,2.62,0,0,0,3.57,1l8.45-4.88H30.09a5.23,5.23,0,0,0,5.23-5.23h1.31a2.61,2.61,0,0,0,2.62-2.61h0V23.55h.65a2,2,0,0,0,2-2h0V17.66a2,2,0,0,0-2-2ZM52,12.64,45.44,1.31a2.62,2.62,0,0,0-3.57-1L33.41,5.23H25.05a5.22,5.22,0,0,0-2.77.8l-2.74,1.7A2.6,2.6,0,0,0,18.32,10V20.28a3.27,3.27,0,0,0,6.54.11V13.08h15a4.58,4.58,0,0,1,4.58,4.58V20L51,16.21a2.62,2.62,0,0,0,1-3.57Z"/></g></g></svg>